<?xml version="1.0" standalone="no"?>
<!DOCTYPE svg PUBLIC "-//W3C//DTD SVG 20010904//EN"
 "http://www.w3.org/TR/2001/REC-SVG-20010904/DTD/svg10.dtd">
<svg version="1.0" xmlns="http://www.w3.org/2000/svg"
 width="1024.000000pt" height="1024.000000pt" viewBox="0 0 1024.000000 1024.000000"
 preserveAspectRatio="xMidYMid meet">
<metadata>
Created by potrace 1.14, written by Peter Selinger 2001-2017
</metadata>
<g transform="translate(0.000000,1024.000000) scale(0.100000,-0.100000)"
fill="#000000" stroke="none">
<path d="M0 5120 l0 -5120 5120 0 5120 0 0 5120 0 5120 -5120 0 -5120 0 0
-5120z m7710 4076 c0 -2 -8 -10 -17 -17 -16 -13 -17 -12 -4 4 13 16 21 21 21
13z m-5248 -52 c39 -25 41 -25 35 -5 -6 26 -8 26 33 -4 38 -28 52 -25 25 5
-18 19 -8 29 11 11 5 -5 32 -21 59 -36 l50 -28 -30 33 c-29 32 -27 31 27 -8
63 -46 73 -50 64 -24 -4 9 14 -5 39 -33 45 -48 45 -49 21 -10 -14 22 -26 43
-26 47 0 4 30 -14 67 -41 37 -28 69 -48 71 -46 2 2 -4 16 -14 32 l-18 28 30
-25 c16 -13 55 -49 88 -80 l58 -55 -24 40 c-43 71 -41 71 26 0 37 -38 62 -59
55 -46 -17 37 6 17 42 -35 33 -49 52 -55 23 -7 -14 22 -7 18 29 -17 26 -24 47
-41 47 -37 0 4 14 -7 30 -25 l31 -33 -21 35 c-34 59 -23 55 34 -12 103 -120
109 -126 95 -98 -6 14 -20 37 -30 52 -33 47 -20 40 39 -19 31 -33 66 -65 76
-73 18 -14 19 -13 13 9 l-6 23 23 -21 c12 -11 26 -21 32 -21 11 0 48 -56 58
-88 4 -12 12 -22 17 -22 5 0 9 -9 9 -20 0 -12 7 -34 15 -49 8 -16 12 -31 9
-33 -2 -3 3 -24 11 -48 8 -23 15 -54 15 -69 l0 -26 -20 25 -20 25 -1 -55 c0
-30 -3 -48 -6 -40 -7 20 -33 40 -51 40 -11 0 -13 -13 -10 -64 2 -36 0 -62 -4
-60 -4 3 -8 14 -8 24 0 10 -4 21 -9 25 -6 3 -10 -12 -9 -35 0 -23 -2 -44 -6
-47 -3 -4 -6 15 -6 41 0 26 -4 45 -8 42 -5 -3 -17 9 -27 27 -16 26 -20 28 -23
14 -2 -10 2 -25 9 -33 10 -13 10 -17 -2 -25 -20 -12 -32 -6 -47 24 -7 15 -20
27 -28 27 -8 0 -17 7 -20 15 -4 8 -10 15 -16 15 -5 0 0 -12 11 -27 28 -35 19
-41 -15 -9 -46 42 -40 20 10 -38 46 -54 55 -71 35 -64 -6 2 -10 7 -10 11 1 4
-13 20 -31 36 -35 31 -91 119 -67 106 8 -4 -7 11 -32 34 -26 22 -49 50 -52 62
-5 20 -3 19 23 -6 16 -15 40 -29 54 -30 39 -5 43 -11 -73 117 -34 37 -61 70
-61 73 0 6 31 -9 69 -34 24 -15 61 -25 61 -16 0 2 -33 41 -73 85 -76 83 -172
164 -146 122 8 -12 21 -25 29 -28 19 -7 122 -125 115 -132 -3 -3 -24 13 -48
35 -57 56 -235 183 -256 183 -11 0 -9 -5 9 -18 41 -28 98 -86 73 -73 -12 6
-25 16 -28 21 -3 6 -14 10 -23 10 -21 -1 21 -38 86 -76 23 -14 42 -30 42 -36
0 -13 -53 18 -126 74 -32 24 -73 55 -93 70 -20 15 -56 39 -81 54 -25 15 -49
32 -55 39 -5 6 -28 21 -50 34 -33 20 -29 13 30 -41 39 -36 68 -68 65 -71 -3
-3 -41 23 -85 58 -44 35 -100 72 -125 81 -51 19 -80 40 -40 30 23 -6 23 -6 -3
9 -49 28 -22 28 32 0 29 -14 49 -30 46 -35 -3 -6 1 -7 10 -4 12 5 13 9 4 20
-6 8 -18 14 -25 14 -8 0 -14 4 -14 9 0 15 -74 40 -82 28 -6 -10 -48 -2 -106
20 -10 4 -13 2 -8 -5 4 -7 29 -22 57 -33 27 -12 49 -25 49 -30 0 -4 8 -10 18
-13 9 -3 29 -17 43 -30 15 -14 29 -23 31 -21 2 2 9 -4 15 -15 9 -13 -10 -7
-67 23 -43 23 -76 45 -74 49 2 3 -10 11 -28 17 -37 13 -41 13 -34 2 7 -12
-143 -5 -177 8 -39 15 -55 14 -33 -2 31 -23 -4 -27 -75 -11 -35 8 -79 18 -96
21 -18 3 -33 9 -33 14 0 5 -10 19 -21 30 -32 32 -6 40 57 19 30 -11 54 -17 54
-15 0 2 -15 18 -32 34 -18 17 -27 31 -20 31 9 0 11 7 7 20 -8 26 1 25 37 -5
31 -26 48 -32 48 -15 0 6 -4 10 -9 10 -12 0 -61 44 -61 54 0 4 9 5 20 1 15 -5
18 -3 14 9 -4 11 0 16 15 16 12 0 21 6 21 16 0 8 5 12 10 9 6 -4 40 -8 76 -10
58 -3 63 -1 47 12 -17 13 -16 14 7 7 14 -3 45 -15 69 -25 49 -21 66 -17 51 12
-13 23 -8 24 30 4 32 -17 36 -14 20 16 -14 25 -8 24 42 -7z m5187 -11 l-24
-26 57 30 c32 17 57 28 56 24 -2 -18 4 -21 22 -11 16 9 19 8 13 -7 -6 -16 -5
-16 17 0 31 22 64 23 56 2 -7 -20 3 -19 26 2 10 9 18 11 18 5 0 -6 -5 -14 -10
-17 -21 -13 1 -25 23 -13 27 14 51 18 154 21 60 1 83 -1 83 -10 0 -9 13 -11
45 -6 39 5 45 4 39 -11 -3 -9 -1 -16 6 -16 6 0 8 -4 5 -10 -3 -5 -1 -10 4 -10
6 0 11 -7 11 -15 0 -9 9 -15 22 -15 21 0 21 0 -3 -26 l-24 -27 28 7 c36 9 67
-1 67 -21 0 -11 8 -14 35 -11 l35 4 -20 -21 c-11 -12 -20 -25 -20 -30 0 -5
-19 -29 -42 -53 -25 -25 -35 -40 -24 -36 13 5 17 4 12 -4 -8 -14 6 -16 20 -3
5 4 22 11 37 15 25 6 27 5 18 -11 -5 -10 -21 -29 -35 -42 -33 -31 -33 -37 5
-45 28 -5 29 -7 16 -26 -19 -27 -10 -70 14 -70 19 0 19 -1 2 -27 -10 -16 -23
-34 -30 -41 -18 -19 -16 -30 7 -37 11 -4 18 -11 15 -16 -4 -5 1 -9 10 -9 13 0
12 -4 -5 -22 -17 -19 -18 -24 -6 -36 10 -11 12 -22 4 -48 -5 -19 -7 -43 -3
-53 3 -11 -3 -25 -15 -36 -22 -20 -27 -55 -8 -55 6 0 -1 -14 -18 -31 l-29 -31
32 16 c45 22 46 21 22 -25 -11 -23 -17 -44 -12 -48 12 -9 15 -39 4 -45 -5 -3
-7 -15 -4 -26 4 -14 -3 -30 -17 -45 -13 -14 -18 -25 -11 -25 8 0 5 -11 -9 -30
-20 -28 -20 -57 0 -45 5 3 12 1 15 -5 4 -6 -8 -25 -27 -42 -21 -20 -28 -33
-20 -35 22 -8 13 -36 -25 -76 l-38 -40 29 6 c25 4 22 -2 -40 -65 -51 -51 -66
-71 -56 -77 12 -7 12 -12 1 -30 -8 -11 -17 -21 -21 -21 -5 0 -8 -4 -8 -10 0
-5 7 -10 15 -10 22 0 18 -28 -8 -54 -15 -15 -46 -27 -90 -36 -89 -16 -99 -33
-17 -29 54 3 63 1 66 -13 1 -10 -1 -18 -6 -18 -4 0 -13 -13 -18 -29 -7 -21
-19 -31 -41 -36 -35 -7 -42 -25 -11 -25 24 0 26 -13 5 -30 -9 -7 -14 -18 -12
-24 5 -16 -63 -46 -105 -46 -21 0 -38 -4 -38 -10 0 -11 -43 -14 -53 -3 -12 11
-58 12 -85 1 -15 -6 -38 -12 -52 -13 -14 -1 -47 -6 -75 -10 -47 -8 -49 -7 -33
8 9 9 20 17 25 17 4 0 20 11 35 25 15 14 32 25 38 25 5 0 10 4 10 8 0 5 16 14
35 22 19 8 35 17 35 22 0 9 -57 -1 -83 -14 -27 -14 -41 1 -22 22 16 18 16 18
-4 13 -12 -3 -24 -9 -27 -14 -3 -5 -18 -9 -34 -9 -16 0 -33 -6 -37 -13 -4 -8
-17 -17 -28 -20 -14 -5 -10 2 13 23 37 34 38 37 15 42 -11 3 18 22 77 52 52
26 99 51 105 57 5 5 13 9 18 9 5 0 -1 -9 -14 -20 l-24 -20 28 10 c59 21 90 42
76 50 -11 8 -11 10 1 14 82 25 120 42 125 54 4 11 -1 13 -22 9 -16 -3 -37 -9
-47 -13 -17 -6 -16 -2 7 28 15 19 27 38 27 41 0 4 -15 7 -32 7 l-33 0 25 23
c14 13 34 28 45 35 17 9 13 10 -20 5 -36 -6 -39 -5 -26 10 7 10 10 17 5 17 -4
0 8 11 27 25 19 13 39 29 46 35 7 5 38 21 70 36 100 44 118 54 105 54 -7 0
-29 -7 -49 -15 -43 -18 -43 -18 -43 -1 0 8 12 24 28 35 21 16 24 23 13 30 -10
6 -3 16 28 42 27 21 40 38 36 48 -3 8 7 28 26 47 l31 32 -29 -2 c-15 -1 -34
-5 -40 -9 -8 -5 -13 -4 -13 2 0 6 5 11 10 11 6 0 10 5 10 10 0 6 -11 8 -25 4
-35 -9 -31 5 16 54 27 27 36 42 26 42 -9 0 -19 6 -23 13 -4 6 -4 9 0 5 5 -4
20 4 34 18 15 13 30 24 34 24 5 0 8 5 8 11 0 6 -8 8 -17 5 -13 -4 -23 3 -34
23 -16 27 -16 30 -1 45 13 13 13 16 2 16 -9 0 -6 8 10 25 13 14 18 25 11 25
-9 0 -9 5 0 21 9 18 8 20 -9 15 -35 -11 -33 11 4 55 22 26 31 45 24 47 -7 3
-4 12 10 27 l21 23 -30 10 c-16 6 -32 8 -35 5 -13 -13 -5 24 10 45 14 20 14
22 -2 22 -14 0 -10 8 16 35 22 23 29 35 19 35 -8 0 -21 -6 -28 -12 -11 -11
-13 -10 -9 2 3 8 1 23 -3 32 -6 10 -5 19 2 24 8 4 7 9 -2 15 -11 6 -11 11 -1
21 9 9 7 17 -10 35 -12 13 -27 23 -34 23 -8 0 -11 6 -7 16 4 12 0 14 -23 8
-16 -4 -37 -11 -46 -15 -27 -14 -43 -12 -29 5 21 25 -21 25 -95 0 -127 -44
-150 -26 -37 29 70 34 83 50 44 55 -33 5 -62 -4 -105 -33 -21 -14 -65 -37 -99
-51 -33 -14 -76 -37 -94 -51 -18 -14 -33 -20 -33 -14 0 15 -23 3 -85 -44 -33
-26 -43 -30 -35 -15 17 31 -2 24 -68 -25 -33 -25 -64 -45 -70 -45 -5 0 -22
-10 -38 -21 -16 -12 -6 1 22 27 28 27 73 60 99 74 26 14 50 32 52 40 2 8 14
20 26 26 55 28 106 58 103 61 -2 2 -37 -12 -78 -32 -42 -19 -81 -35 -87 -35
-6 0 -11 -4 -11 -10 0 -5 -5 -10 -10 -10 -6 0 -28 -11 -50 -25 -22 -14 -48
-25 -57 -26 -16 0 -16 -1 1 -8 17 -6 16 -9 -9 -25 -15 -10 -24 -12 -20 -5 15
24 -20 -4 -114 -88 -20 -18 -39 -33 -43 -33 -3 0 -21 -19 -39 -41 -28 -36 -30
-40 -10 -30 40 22 32 6 -29 -54 -33 -33 -60 -66 -60 -74 0 -11 5 -10 20 4 12
10 34 19 50 20 27 1 28 0 15 -14 -25 -27 -95 -120 -95 -127 0 -4 8 -1 18 7 9
7 7 2 -5 -11 -13 -14 -35 -24 -54 -25 l-33 -2 29 23 c16 13 26 26 22 31 -4 4
-33 -20 -63 -52 -58 -61 -94 -82 -73 -43 10 18 9 20 -6 14 -14 -5 -17 -2 -13
21 3 16 8 37 13 48 5 16 5 17 -4 5 -10 -13 -12 -13 -21 0 -6 10 -8 -5 -5 -45
2 -38 0 -51 -5 -35 -8 26 -9 25 -26 -27 -4 -15 -6 -15 -14 -3 -7 12 -14 9 -40
-15 -33 -32 -34 -31 -30 56 2 55 -14 87 -26 55 -3 -9 -10 -16 -15 -16 -14 0
-11 22 6 40 14 15 14 21 1 51 -9 19 -15 28 -16 22 0 -7 -5 -13 -11 -13 -13 0
-5 75 10 95 4 5 16 39 26 75 17 59 75 145 75 111 0 -8 27 15 60 50 l59 64 -31
-60 c-28 -53 -29 -58 -9 -40 13 11 38 41 58 67 19 27 39 46 44 42 5 -3 9 1 9
9 0 7 12 24 26 38 l26 24 -27 -55 -28 -54 54 59 c30 32 64 69 75 82 47 51 29
0 -20 -54 -10 -13 -17 -26 -13 -29 3 -4 52 39 108 95 55 55 102 101 104 101 2
0 1 -9 -2 -20 -3 -11 -9 -18 -13 -15 -4 3 -10 -2 -14 -10 -10 -27 5 -16 92 62
47 43 80 68 73 55 -14 -27 -5 -29 17 -4 23 24 4 -7 -22 -35 -11 -13 -17 -26
-14 -29 4 -3 39 25 79 63 44 41 64 55 51 36 -12 -17 -22 -34 -22 -37 0 -12
100 56 120 82 11 15 17 20 14 11 -11 -32 17 -30 64 4 54 39 67 39 31 0z
m-5592 -291 c-21 -4 -77 16 -77 29 0 4 21 0 48 -9 30 -10 41 -18 29 -20z
m5713 -2 c10 -7 11 -10 3 -11 -22 -3 -27 -4 -51 -18 -22 -12 -23 -11 -13 7 9
18 24 29 41 31 3 0 12 -4 20 -9z m-5323 -56 c-3 -3 -12 -4 -19 -1 -8 3 -5 6 6
6 11 1 17 -2 13 -5z m5437 -9 c-4 -8 -10 -12 -15 -9 -5 2 -18 0 -30 -7 -16 -8
-20 -8 -14 1 6 10 40 28 57 29 4 1 5 -6 2 -14z m-275 -29 c-2 -2 -15 -9 -29
-15 -24 -11 -24 -11 -6 3 16 13 49 24 35 12z m-59 -26 c0 -5 -5 -10 -11 -10
-5 0 -7 5 -4 10 3 6 8 10 11 10 2 0 4 -4 4 -10z m-5502 -40 c31 -41 27 -45 -8
-8 -32 33 -35 38 -22 38 5 0 18 -13 30 -30z m860 -61 c34 -18 72 -44 85 -57
22 -25 21 -24 -28 3 -27 16 -59 37 -71 47 -11 10 -23 16 -25 13 -3 -2 -21 12
-40 33 -19 20 -23 27 -9 16 14 -12 53 -36 88 -55z m944 13 c2 6 9 9 14 5 20
-12 66 -86 62 -99 -3 -8 -11 -1 -21 17 -21 38 -22 28 -2 -18 8 -20 15 -39 15
-42 0 -3 -7 -5 -15 -5 -14 0 -20 -12 -16 -34 1 -5 -6 -5 -16 -1 -10 4 -24 8
-32 9 -8 2 -18 11 -22 22 -7 18 -8 18 -8 -2 -1 -27 -29 -27 -37 0 -4 12 -13
25 -20 31 -15 12 -36 85 -24 85 5 0 13 -8 18 -17 8 -13 11 -10 17 17 7 32 8
33 22 15 13 -19 14 -19 12 0 -1 11 -1 29 0 40 1 18 4 18 26 -7 13 -16 25 -22
27 -16z m2606 -6 c15 16 17 15 27 -8 5 -14 15 -23 22 -21 13 5 -2 -76 -18 -91
-5 -6 -9 -19 -10 -30 0 -19 -1 -18 -10 4 -6 14 -8 33 -5 42 2 10 0 16 -5 12
-5 -3 -9 -14 -9 -25 0 -14 -9 -21 -30 -25 -16 -4 -30 -11 -30 -16 0 -5 -9 -4
-20 2 -11 6 -25 8 -30 5 -16 -10 -11 13 14 63 13 26 21 52 19 58 -2 6 3 24 12
40 8 16 15 23 15 16 0 -10 5 -8 18 4 16 17 17 16 20 -14 3 -30 4 -31 20 -16z
m904 5 c-42 -41 -80 -66 -88 -58 -4 4 114 95 125 97 2 0 -15 -18 -37 -39z
m-5282 -17 c0 -2 -7 -4 -15 -4 -8 0 -15 4 -15 10 0 5 7 7 15 4 8 -4 15 -8 15
-10z m5225 6 c-4 -6 -39 -33 -78 -60 -40 -27 -85 -59 -102 -71 -16 -11 -12 -6
9 13 37 31 167 127 174 128 2 0 0 -5 -3 -10z m-984 -72 c-59 -111 -60 -113
-61 -95 0 10 -4 16 -9 13 -14 -9 -1 32 15 45 8 6 14 17 14 23 0 6 12 29 26 50
38 55 49 27 15 -36z m-2331 -35 c0 -7 5 -13 11 -13 5 0 7 5 3 12 -4 7 -3 8 4
4 7 -4 12 -16 12 -27 0 -11 -4 -17 -10 -14 -5 3 -10 -3 -10 -15 0 -20 -1 -20
-24 4 -26 29 -41 34 -32 10 3 -8 2 -12 -4 -9 -6 3 -10 17 -10 31 0 17 4 23 12
18 8 -5 9 0 4 17 -3 13 -9 38 -13 54 -5 28 -3 27 26 -15 17 -25 31 -51 31 -57z
m-720 -23 c10 -19 10 -20 -9 -8 -22 13 -28 28 -11 28 5 0 14 -9 20 -20z m-65
-50 c12 -19 -12 -10 -31 11 -19 22 -19 22 3 10 12 -6 25 -16 28 -21z m4163 15
c-17 -17 -118 -72 -118 -65 0 6 -11 5 -26 0 -35 -14 -42 -12 -20 5 11 8 28 15
37 15 9 0 41 11 71 25 54 25 66 29 56 20z m-4365 -97 c18 -14 29 -29 26 -32
-5 -5 -159 101 -159 110 0 9 99 -49 133 -78z m8 46 c17 -8 28 -18 25 -21 -3
-3 -20 4 -38 16 -39 24 -30 28 13 5z m282 -49 c9 -18 9 -19 -7 -6 -9 8 -27 28
-38 45 l-22 31 28 -25 c15 -14 33 -34 39 -45z m-102 38 c13 -16 12 -17 -3 -4
-10 7 -18 15 -18 17 0 8 8 3 21 -13z m-1145 -62 c6 -18 28 -49 50 -68 l39 -34
-43 21 c-51 25 -64 21 -28 -8 25 -19 37 -40 16 -27 -5 3 -10 -1 -10 -10 0 -12
-5 -15 -16 -11 -9 3 -19 6 -24 6 -11 0 -40 29 -40 40 0 5 7 7 15 4 24 -10 17
14 -9 31 -14 9 -29 30 -35 47 -10 28 -9 30 9 25 13 -3 20 0 20 10 0 30 44 10
56 -26z m4844 -115 c0 -2 -8 -10 -17 -17 -16 -13 -17 -12 -4 4 13 16 21 21 21
13z m65 -6 c-3 -5 -11 -10 -16 -10 -6 0 -7 5 -4 10 3 6 11 10 16 10 6 0 7 -4
4 -10z m-4882 -62 c7 -8 23 -23 37 -33 l25 -17 -32 4 c-18 3 -33 1 -33 -4 0
-4 4 -8 9 -8 5 0 11 -7 15 -15 4 -12 0 -14 -22 -9 -15 4 -31 11 -36 15 -6 5
-16 9 -24 9 -12 0 -12 -3 -2 -15 7 -8 18 -15 25 -15 6 0 20 -9 29 -19 17 -18
17 -19 -1 -23 -10 -3 -29 1 -43 8 -32 15 -76 62 -67 71 4 3 1 13 -6 21 -10 13
-8 14 11 8 24 -8 27 0 13 38 -7 17 -7 26 2 29 16 5 84 -26 100 -45z m4816 -1
c-33 -32 -31 -22 6 25 11 14 22 22 24 16 2 -5 -12 -24 -30 -41z m-2021 -2 c-3
-3 -9 2 -12 12 -6 14 -5 15 5 6 7 -7 10 -15 7 -18z m1933 -38 c-8 -8 -11 -7
-11 4 0 9 3 19 7 23 4 4 9 2 11 -4 3 -7 -1 -17 -7 -23z m-741 -74 c-11 -17
-11 -17 -6 0 3 10 6 24 7 30 0 9 2 9 5 0 3 -7 0 -20 -6 -30z m-1201 -16 c1 -5
-3 -5 -9 -2 -5 3 -10 16 -9 28 0 21 1 21 9 2 5 -11 9 -24 9 -28z m218 -9 c-3
-7 -5 -2 -5 12 0 14 2 19 5 13 2 -7 2 -19 0 -25z m893 -8 c-17 -32 -30 -33
-19 0 6 16 15 27 20 24 5 -3 5 -13 -1 -24z m-3929 -12 c61 -47 76 -64 83 -92
7 -30 2 -31 -46 -11 -11 4 -18 3 -18 -4 0 -6 3 -11 8 -11 4 0 21 -11 37 -25
29 -23 29 -24 5 -18 l-25 6 25 -22 c14 -13 25 -26 25 -29 1 -4 4 -17 9 -29 8
-24 59 -40 95 -28 20 6 61 -13 61 -29 0 -5 -16 -6 -35 -3 -58 9 -38 -24 40
-67 68 -38 68 -40 5 -33 -45 5 -51 3 -36 -6 10 -7 28 -20 40 -29 21 -17 20
-17 -18 -11 -42 7 -42 4 0 -54 16 -22 15 -23 -7 -23 -35 0 -108 31 -104 44 3
6 -14 24 -36 39 -22 15 -39 34 -36 41 3 7 -19 34 -49 61 -30 27 -54 53 -54 57
0 5 12 5 28 2 l27 -7 -32 33 c-18 19 -33 39 -33 46 0 7 -6 15 -12 17 -10 4
-10 8 0 15 11 8 9 14 -10 32 -16 16 -19 24 -10 27 10 4 10 8 2 19 -9 10 -6 15
14 20 30 7 34 19 10 28 -15 6 -15 8 0 24 12 14 13 21 4 30 -22 22 12 14 43
-10z m3452 -17 c-4 -15 14 -14 20 2 4 9 6 9 6 -1 1 -7 -6 -15 -14 -18 -8 -4
-12 -11 -8 -17 3 -6 1 -7 -6 -3 -6 4 -9 12 -6 17 4 5 -1 12 -9 15 -9 3 -13 10
-10 16 8 12 30 4 27 -11z m137 0 c0 -3 15 -5 32 -5 18 1 39 -4 47 -10 10 -7
13 -7 8 0 -7 12 21 12 40 1 6 -4 15 -2 19 4 5 8 9 7 15 -2 5 -8 23 -12 46 -11
21 1 45 -2 53 -8 12 -8 11 -10 -6 -10 -12 0 -32 -9 -45 -21 -20 -18 -25 -18
-34 -5 -7 9 -20 13 -32 10 -11 -3 -24 -1 -27 5 -4 6 -2 11 4 11 6 0 9 4 6 9
-9 14 -65 -10 -59 -25 3 -8 -2 -11 -16 -7 -11 3 -18 9 -15 14 3 5 -2 6 -11 3
-8 -4 -23 0 -32 7 -14 12 -16 12 -8 0 6 -11 4 -13 -9 -8 -10 4 -21 7 -24 7 -4
0 -2 4 4 8 9 5 8 11 -3 21 -12 11 -14 11 -12 0 3 -27 -1 -37 -19 -41 -12 -4
-18 1 -19 13 -1 13 3 16 14 12 12 -5 15 -2 10 10 -3 8 -1 18 6 20 17 7 67 5
67 -2z m788 -16 c-6 -14 -13 -23 -15 -21 -5 5 15 46 22 46 3 0 -1 -11 -7 -25z
m-973 5 c3 -6 -1 -7 -9 -4 -18 7 -21 14 -7 14 6 0 13 -4 16 -10z m-12 -24 c4
-10 1 -13 -9 -9 -15 6 -19 23 -5 23 5 0 11 -7 14 -14z m517 -41 c5 -6 -15 -10
-58 -11 -37 0 -59 1 -49 3 9 3 17 10 17 18 0 10 9 11 35 5 20 -5 33 -4 29 1
-3 5 -2 15 3 22 5 8 9 6 11 -8 2 -11 8 -24 12 -30z m54 26 c3 -5 -6 -8 -19 -8
-33 0 -41 12 -10 15 13 1 26 -2 29 -7z m39 -32 c-5 -5 -9 3 -11 19 -1 24 0 25
9 9 7 -11 7 -23 2 -28z m-294 4 c2 -2 -3 -3 -11 -3 -9 0 -19 7 -22 16 -6 15
-4 15 11 3 10 -7 20 -15 22 -16z m-69 -9 c0 -2 -9 0 -20 6 -11 6 -20 13 -20
16 0 2 9 0 20 -6 11 -6 20 -13 20 -16z m673 11 c-3 -9 -8 -14 -10 -11 -3 3 -2
9 2 15 9 16 15 13 8 -4z m-349 -10 c-4 -8 -1 -22 6 -30 16 -20 -1 -19 -26 1
-10 8 -14 13 -8 10 7 -3 14 3 17 14 3 11 8 20 11 20 3 0 3 -7 0 -15z m236 -29
c0 -23 -2 -24 -30 -15 -16 6 -30 15 -30 20 0 11 23 7 32 -6 4 -5 10 -2 14 8 9
24 14 21 14 -7z m147 -10 c-3 -23 1 -37 9 -40 8 -3 14 0 14 7 0 7 7 3 15 -7
20 -27 13 -30 -26 -12 -19 8 -60 18 -91 21 -46 5 -55 9 -46 19 10 11 15 10 26
-1 19 -18 42 -16 43 5 1 16 2 16 6 0 7 -28 31 -21 38 12 9 41 16 38 12 -4z
m-522 -26 c3 -5 -4 -6 -15 -3 -11 3 -22 9 -25 13 -3 5 4 6 15 3 11 -3 22 -9
25 -13z m-475 -42 l33 -43 -36 34 c-32 30 -46 51 -34 51 2 0 19 -19 37 -42z
m128 13 c16 -23 16 -24 -6 -10 -12 8 -22 18 -22 24 0 5 -4 3 -10 -5 -5 -8 -12
-11 -15 -8 -11 11 5 29 22 26 9 -2 23 -14 31 -27z m975 10 c2 -10 1 -25 -4
-32 -6 -10 -9 -4 -9 19 0 36 5 42 13 13z m38 -8 c-4 -15 -13 -29 -20 -31 -9
-3 -8 4 3 27 20 38 27 40 17 4z m-1081 7 c0 -5 -2 -10 -4 -10 -3 0 -8 5 -11
10 -3 6 -1 10 4 10 6 0 11 -4 11 -10z m130 -22 c0 -5 -11 -1 -25 8 -14 9 -25
18 -25 20 0 2 11 -2 25 -8 14 -6 25 -15 25 -20z m32 20 c-9 -9 -15 -9 -24 0
-9 9 -7 12 12 12 19 0 21 -3 12 -12z m127 -14 c12 -12 -48 -2 -65 11 -17 13
-15 13 21 4 22 -6 42 -13 44 -15z m-305 -10 c5 -14 4 -15 -9 -4 -17 14 -19 20
-6 20 5 0 12 -7 15 -16z m76 -16 c0 -6 -7 -5 -15 2 -8 7 -15 17 -15 22 0 6 7
5 15 -2 8 -7 15 -17 15 -22z m123 11 c4 -16 3 -18 -9 -8 -16 13 -19 29 -5 29
5 0 11 -9 14 -21z m137 11 c0 -5 -2 -10 -4 -10 -3 0 -8 5 -11 10 -3 6 -1 10 4
10 6 0 11 -4 11 -10z m50 -9 c0 -5 -9 -7 -20 -4 -11 3 -20 7 -20 9 0 2 9 4 20
4 11 0 20 -4 20 -9z m-221 -44 c9 1 11 0 3 -3 -6 -3 -9 -11 -6 -16 17 -26 -17
6 -36 35 l-22 32 22 -25 c12 -14 30 -24 39 -23z m160 30 c8 -10 7 -14 -4 -14
-8 0 -12 4 -9 8 2 4 -2 10 -8 12 -8 4 -9 6 -2 6 6 1 17 -5 23 -12z m781 -22
c-7 -9 -15 -13 -19 -10 -3 3 1 10 9 15 21 14 24 12 10 -5z m-1165 -54 c10 -24
1 -19 -30 18 -30 35 -30 35 -3 16 15 -11 30 -26 33 -34z m105 15 c15 -20 33
-34 45 -34 11 1 27 0 35 -1 13 -1 13 -2 0 -11 -9 -5 -19 -5 -27 2 -10 8 -13 7
-13 -3 0 -8 -18 6 -40 30 -22 24 -40 45 -40 47 0 13 18 -1 40 -30z m-26 -27
c-3 -5 -1 -9 3 -9 5 0 17 -6 27 -13 18 -13 18 -14 0 -21 -10 -4 -15 -4 -12 0
4 3 -3 15 -15 25 -12 10 -18 18 -13 19 5 0 -1 12 -15 28 l-24 27 27 -24 c15
-13 25 -28 22 -32z m66 26 c7 -9 8 -15 2 -15 -5 0 -12 7 -16 15 -3 8 -4 15 -2
15 2 0 9 -7 16 -15z m545 5 c3 -5 1 -10 -4 -10 -6 0 -11 5 -11 10 0 6 2 10 4
10 3 0 8 -4 11 -10z m-652 -14 c4 -10 1 -13 -9 -9 -15 6 -19 23 -5 23 5 0 11
-7 14 -14z m1305 -57 c12 -19 11 -19 -8 -9 -11 6 -20 15 -20 20 0 17 15 11 28
-11z m-1134 -4 c3 -8 1 -15 -4 -15 -6 0 -10 7 -10 15 0 8 2 15 4 15 2 0 6 -7
10 -15z m1207 -28 c-10 -9 -11 -8 -5 6 3 10 9 15 12 12 3 -3 0 -11 -7 -18z
m-4586 -127 c4 -6 -8 -10 -30 -10 -22 0 -34 4 -30 10 3 6 17 10 30 10 13 0 27
-4 30 -10z m4466 -70 c19 0 59 -29 41 -30 -7 0 -10 -4 -7 -10 9 -14 -15 -12
-50 6 -22 11 -24 13 -7 10 29 -5 29 12 -1 19 -13 4 -24 13 -24 21 0 12 3 12
17 -1 9 -8 23 -15 31 -15z m-4233 -11 c13 -5 33 -9 46 -9 29 0 116 -42 139
-68 26 -28 5 -38 -46 -21 -31 10 -41 11 -45 1 -2 -7 -14 -12 -27 -12 -37 0
-39 -18 -3 -25 17 -4 45 -16 62 -27 l31 -20 -64 6 c-59 6 -87 19 -75 37 6 11
-32 17 -47 8 -22 -14 -69 -11 -64 4 5 13 -38 37 -67 37 -10 0 -23 9 -30 20 -7
11 -18 20 -25 20 -15 0 -53 31 -53 42 0 5 43 8 95 8 58 0 95 4 95 10 0 10 32
6 78 -11z m4167 -17 c-10 -2 -25 3 -33 12 -15 14 -13 15 17 3 23 -8 28 -13 16
-15z m-610 -42 c10 -11 16 -20 13 -20 -3 0 -13 9 -23 20 -10 11 -16 20 -13 20
3 0 13 -9 23 -20z m685 10 c21 -13 6 -23 -22 -14 -13 4 -27 7 -31 6 -5 -1 -6
2 -2 8 8 12 35 13 55 0z m800 -15 c-12 -13 -26 -22 -31 -19 -4 2 -12 -4 -18
-13 -9 -17 -11 -17 -27 -1 -17 16 -16 18 12 29 16 6 38 15 49 19 35 15 39 11
15 -15z m-885 9 c9 -4 21 -18 26 -31 8 -21 13 -24 40 -18 17 4 29 3 26 -1 -3
-5 18 -10 47 -11 38 -1 44 1 21 6 l-30 7 25 7 c18 5 29 1 40 -12 15 -18 65
-37 54 -20 -3 5 -14 9 -25 9 -10 0 -19 6 -19 14 0 9 9 13 23 12 31 -4 49 -15
42 -27 -4 -5 -3 -9 2 -10 4 0 23 -2 40 -3 18 -2 30 0 27 5 -3 5 -1 9 5 9 5 0
14 -6 18 -13 12 -21 70 -46 81 -35 5 5 14 3 22 -7 7 -8 21 -15 32 -15 19 0 79
-27 88 -40 3 -4 12 -10 20 -13 9 -4 5 -6 -10 -6 -46 2 -60 -1 -60 -12 0 -7 11
-9 28 -6 16 3 40 -2 62 -13 23 -12 29 -19 17 -20 -10 0 -27 -9 -39 -20 l-22
-20 28 0 c15 0 25 4 22 9 -6 10 49 33 57 24 3 -3 3 -12 0 -21 -5 -11 -2 -14
10 -9 12 4 29 -5 53 -30 29 -29 38 -33 46 -22 8 12 9 11 5 -1 -2 -8 -13 -16
-25 -18 -12 -2 -20 -7 -17 -12 3 -5 12 -7 19 -4 8 3 20 -3 28 -13 27 -35 91
-89 85 -70 -9 24 10 12 25 -16 10 -19 9 -20 -4 -10 -8 7 -17 11 -20 8 -3 -3
-11 1 -18 10 -7 8 -17 15 -22 15 -16 0 33 -61 59 -73 16 -7 23 -17 20 -29 -3
-10 0 -18 6 -18 8 0 7 -4 -2 -9 -17 -11 -51 -2 -58 14 -2 7 -14 16 -26 19 -30
8 -80 53 -73 65 4 5 1 13 -5 17 -8 5 -9 3 -4 -6 5 -8 3 -11 -4 -9 -7 3 -11 8
-9 12 4 11 -30 30 -41 23 -4 -3 -17 3 -28 14 -12 10 -23 17 -26 14 -3 -3 -24
13 -47 35 -23 22 -45 39 -49 38 -11 -3 -61 35 -56 43 3 4 -6 11 -19 14 -36 9
-42 36 -8 37 16 0 21 3 12 6 -20 8 -40 29 -40 42 0 12 12 15 45 11 17 -2 17 0
5 15 -8 10 -23 15 -37 12 -12 -2 -20 -1 -18 4 7 11 -18 17 -35 9 -22 -11 -45
2 -45 25 0 16 -7 20 -36 21 -20 1 -41 4 -47 8 -7 4 -20 3 -29 -3 -13 -6 -29
-5 -52 5 -19 8 -36 12 -39 9 -3 -3 0 -5 6 -5 7 0 12 -5 12 -11 0 -5 -5 -7 -11
-3 -22 13 -79 22 -72 11 4 -7 -1 -8 -13 -4 -18 7 -18 6 -1 -7 9 -7 22 -27 28
-44 6 -17 16 -30 22 -28 7 1 8 1 3 -2 -4 -2 -2 -9 5 -14 10 -7 9 -8 -6 -3 -11
4 -27 8 -36 10 -26 5 -89 34 -89 40 0 4 10 3 22 -1 20 -6 21 -5 10 9 -8 9 -23
18 -35 20 -17 3 -15 5 8 6 l30 2 -40 19 c-35 17 -37 19 -15 20 14 1 19 4 11 7
-11 5 -11 7 0 14 12 8 11 11 -1 19 -8 5 -20 8 -27 5 -7 -2 -10 2 -6 11 6 16 6
16 28 8z m-184 -23 c-11 -7 -10 -11 5 -19 11 -5 25 -7 32 -5 6 3 12 0 12 -6 0
-12 -37 -6 -56 10 -15 12 -10 29 9 29 8 0 7 -3 -2 -9z m74 0 c-3 -6 3 -14 12
-20 10 -6 14 -11 9 -11 -5 0 -2 -8 5 -17 12 -15 12 -16 -4 -10 -10 4 -24 7
-30 7 -7 0 -6 5 3 10 13 9 13 12 -3 24 -14 11 -15 15 -5 19 19 8 20 8 13 -2z
m175 -7 c0 -2 -7 -4 -15 -4 -8 0 -15 4 -15 10 0 5 7 7 15 4 8 -4 15 -8 15 -10z
m157 10 c-3 -3 -12 -4 -19 -1 -8 3 -5 6 6 6 11 1 17 -2 13 -5z m-112 -14 c3
-5 2 -10 -4 -10 -5 0 -13 5 -16 10 -3 6 -2 10 4 10 5 0 13 -4 16 -10z m210
-20 c3 -5 2 -10 -4 -10 -5 0 -13 5 -16 10 -3 6 -2 10 4 10 5 0 13 -4 16 -10z
m-815 -35 c19 -19 30 -35 24 -35 -5 0 -22 16 -37 35 -36 45 -30 45 13 0z m365
-1 c28 -13 43 -22 35 -20 -9 2 -24 -2 -35 -10 -26 -19 -35 -18 -35 7 0 18 2
19 15 9 9 -7 18 -10 22 -6 9 8 -3 19 -25 21 -9 1 -30 9 -47 19 -27 15 -27 16
-5 10 14 -3 48 -17 75 -30z m-382 -36 c-2 -5 1 -8 8 -8 7 0 10 -2 7 -5 -11
-11 -38 8 -58 42 l-21 36 34 -29 c19 -16 32 -32 30 -36z m258 44 c-7 -2 -18 1
-23 6 -8 8 -4 9 13 5 13 -4 18 -8 10 -11z m-20 -19 c13 -17 13 -17 -6 -3 -11
8 -22 16 -24 17 -2 2 0 3 6 3 6 0 17 -8 24 -17z m-56 -13 c3 -5 1 -10 -4 -10
-6 0 -11 5 -11 10 0 6 2 10 4 10 3 0 8 -4 11 -10z m515 0 c13 -9 13 -10 0 -9
-8 1 -26 5 -40 9 l-25 8 25 1 c14 0 32 -4 40 -9z m-376 -29 c-2 -3 -12 3 -22
13 -16 17 -16 18 5 5 12 -7 20 -15 17 -18z m1166 19 c0 -10 -20 -14 -53 -12
-10 1 -16 -2 -13 -7 4 -5 -3 -7 -14 -4 -11 3 -17 9 -14 14 3 5 9 7 14 4 5 -3
11 -1 15 5 8 13 65 13 65 0z m-1521 -27 c2 -2 -3 -3 -11 -3 -9 0 -19 7 -22 16
-6 15 -4 15 11 3 10 -7 20 -15 22 -16z m844 13 c21 -16 22 -26 1 -26 -8 0 -13
4 -9 9 3 6 -3 14 -12 20 -10 6 -13 10 -8 10 6 0 18 -6 28 -13z m51 -1 c3 -8 1
-15 -3 -15 -5 0 -11 7 -15 15 -3 8 -1 15 3 15 5 0 11 -7 15 -15z m-99 -13 c-3
-3 -11 0 -18 7 -9 10 -8 11 6 5 10 -3 15 -9 12 -12z m-670 -30 c-3 -3 -11 0
-18 7 -9 10 -8 11 6 5 10 -3 15 -9 12 -12z m338 11 c-7 -2 -19 -2 -25 0 -7 3
-2 5 12 5 14 0 19 -2 13 -5z m272 -3 c3 -6 -1 -7 -9 -4 -18 7 -21 14 -7 14 6
0 13 -4 16 -10z m175 0 c-11 -7 -8 -9 15 -9 47 0 65 -4 59 -13 -3 -5 -11 -5
-17 -1 -6 4 -25 6 -43 5 -18 -2 -37 4 -44 13 -11 13 -8 15 16 15 22 0 26 -3
14 -10z m-751 -37 c18 -2 49 -33 34 -33 -7 0 -15 5 -18 10 -4 6 -10 8 -14 5
-5 -2 -17 5 -27 17 -12 13 -13 18 -4 13 8 -5 21 -10 29 -12z m514 -32 c-3 -13
-10 -18 -21 -14 -11 5 -13 3 -7 -6 6 -10 3 -11 -14 -2 -23 13 -29 23 -8 15 8
-3 20 2 27 11 17 21 29 19 23 -4z m327 9 c-8 -5 -19 -10 -25 -10 -5 0 -3 5 5
10 8 5 20 10 25 10 6 0 3 -5 -5 -10z m648 -2 c-6 -18 -28 -21 -28 -4 0 9 7 16
16 16 9 0 14 -5 12 -12z m-949 -22 c9 -10 8 -15 -4 -20 -10 -4 -15 1 -15 14 0
24 4 25 19 6z m161 -15 c0 -6 -4 -13 -10 -16 -5 -3 -10 1 -10 9 0 9 5 16 10
16 6 0 10 -4 10 -9z m550 -126 c0 -2 -13 3 -30 11 -16 9 -30 20 -30 25 0 6 14
1 30 -11 17 -12 30 -23 30 -25z m-1938 -107 c-6 -18 -13 -42 -18 -53 l-7 -20
23 20 c13 11 20 14 16 7 -4 -7 -9 -22 -12 -35 -2 -12 -13 -49 -23 -82 l-20
-60 -2 55 c-1 30 -4 44 -6 31 -3 -14 -11 -34 -19 -47 -8 -12 -14 -26 -13 -30
1 -5 -2 -20 -8 -34 -6 -14 -13 -32 -16 -40 -10 -27 -8 12 3 49 14 51 4 49 -20
-3 -24 -53 -46 -62 -36 -16 3 17 1 30 -4 30 -6 0 -10 -5 -10 -12 0 -6 -3 -8
-6 -5 -4 3 3 33 16 66 12 32 30 90 41 128 10 38 17 53 15 33 -2 -19 -13 -71
-25 -115 -25 -94 -25 -95 -8 -95 12 0 95 188 118 269 13 42 13 43 22 18 5 -15
4 -40 -1 -59z m-575 40 c-3 -7 -5 -2 -5 12 0 14 2 19 5 13 2 -7 2 -19 0 -25z
m612 11 c-16 -10 -23 -4 -14 10 3 6 11 8 17 5 6 -4 5 -9 -3 -15z m1576 3 c-3
-3 -11 0 -18 7 -9 10 -8 11 6 5 10 -3 15 -9 12 -12z m-2224 -35 c0 21 46 -114
46 -137 0 -8 10 -37 21 -65 19 -46 21 -48 22 -20 1 17 5 38 9 49 5 14 10 5 19
-34 15 -65 15 -97 0 -106 -7 -4 -8 -3 -4 4 4 7 3 12 -2 12 -5 0 -8 24 -6 53 4
52 4 52 -6 13 -6 -22 -12 -41 -14 -43 -1 -2 -15 30 -31 69 -33 85 -34 87 -44
69 -5 -8 -11 8 -16 45 -7 60 -23 104 -37 104 -4 0 -8 6 -8 13 0 6 12 -1 25
-16 21 -23 25 -25 26 -10z m98 -47 c1 -13 0 -13 -9 0 -5 8 -9 26 -9 40 l1 25
8 -25 c4 -14 8 -32 9 -40z m368 38 c-3 -8 -6 -5 -6 6 -1 11 2 17 5 13 3 -3 4
-12 1 -19z m63 -15 c-11 -17 -11 -17 -6 0 3 10 6 24 7 30 0 9 2 9 5 0 3 -7 0
-20 -6 -30z m464 -1 c-23 -20 -60 -52 -84 -71 -44 -35 -100 -106 -100 -125 1
-6 12 3 25 19 33 40 32 18 -1 -26 -14 -19 -39 -60 -55 -91 -16 -31 -33 -59
-39 -63 -6 -3 -8 -10 -5 -15 3 -5 -3 -17 -14 -27 -11 -10 -25 -31 -30 -47 -10
-25 -6 -23 35 19 26 25 48 56 49 68 2 12 19 47 39 77 20 30 42 72 48 93 18 60
143 181 197 192 12 2 19 0 16 -6 -4 -5 -10 -7 -15 -4 -4 3 -11 -2 -14 -11 -3
-8 -10 -12 -16 -9 -5 3 -10 2 -10 -2 0 -5 -31 -34 -70 -66 -38 -31 -70 -65
-70 -74 0 -14 2 -15 18 -1 35 31 41 28 20 -8 -12 -21 -16 -34 -9 -30 10 7 11
3 6 -15 -8 -25 -12 -28 119 88 22 19 54 42 70 50 17 9 42 24 55 34 25 20 56
26 46 9 -3 -5 -15 -10 -26 -10 -11 0 -22 -6 -25 -14 -3 -8 -39 -41 -80 -73
-75 -58 -87 -76 -58 -87 8 -3 13 -2 10 3 -6 10 10 25 38 35 17 6 17 5 5 -10
-13 -16 -11 -17 16 -11 27 7 28 6 13 -6 -27 -22 -21 -30 6 -10 13 10 22 21 20
24 -2 3 7 11 19 18 25 14 52 50 43 59 -4 3 -12 -3 -20 -13 -8 -11 -15 -14 -19
-8 -9 14 29 47 44 37 7 -4 10 -3 6 3 -7 11 47 55 57 46 3 -4 -6 -21 -20 -40
-32 -42 -10 -46 34 -5 47 43 92 74 92 62 0 -6 6 -8 13 -5 6 4 1 -3 -13 -14
-14 -11 -29 -21 -33 -21 -16 0 -91 -70 -93 -86 -2 -13 4 -11 24 7 33 29 92 63
98 56 3 -2 -14 -21 -37 -41 -45 -38 -45 -49 -1 -17 15 10 38 24 52 31 l25 13
-19 -22 c-11 -11 -16 -21 -11 -21 4 0 -4 -9 -19 -21 -14 -11 -31 -17 -37 -14
-5 4 -18 1 -27 -7 -9 -8 -28 -20 -42 -26 -33 -17 -47 -29 -95 -82 l-40 -44 42
37 c23 20 59 48 80 62 21 13 48 32 61 41 13 10 22 12 22 5 0 -19 32 -12 95 19
64 33 81 50 62 62 -9 6 -9 8 1 8 6 0 14 -1 17 -2 2 -2 11 6 19 17 11 15 14 16
12 4 -1 -9 -9 -24 -19 -33 -25 -26 -21 -28 16 -11 l32 16 -25 -20 c-14 -12
-44 -30 -67 -42 -46 -22 -57 -40 -20 -32 12 3 0 -7 -28 -22 -27 -15 -63 -41
-80 -58 l-30 -30 32 22 c35 24 106 57 193 91 l55 22 -40 -37 c-22 -20 -35 -34
-28 -31 6 3 19 3 29 -1 16 -6 16 -7 -2 -14 -18 -7 -18 -8 1 -8 11 0 40 4 65
10 25 6 58 12 73 14 16 2 42 7 59 10 19 5 28 3 25 -3 -11 -16 117 11 140 30 8
6 16 8 20 5 8 -9 -17 -38 -27 -32 -5 3 -28 -1 -52 -10 -24 -8 -53 -15 -65 -15
-27 0 -40 -19 -22 -31 10 -6 8 -9 -8 -9 -13 0 -23 -4 -23 -9 0 -10 -7 -9 -53
4 -26 7 -26 8 -10 22 17 13 16 14 -7 8 -57 -15 -90 -30 -95 -43 -3 -9 6 -7 29
7 43 27 59 27 26 0 -21 -17 -22 -19 -3 -10 33 16 52 12 23 -5 l-25 -15 25 8
c14 4 41 7 60 8 20 0 58 13 90 31 55 32 56 32 183 29 70 -2 130 -5 133 -8 3
-3 -22 -13 -55 -23 -34 -10 -61 -22 -61 -26 0 -11 21 -9 108 6 39 7 72 9 72 5
0 -5 -12 -11 -27 -15 -53 -11 -47 -14 20 -9 43 4 67 2 67 -5 0 -5 -7 -10 -16
-10 -8 0 -13 -4 -10 -9 9 -14 -44 -19 -104 -11 -33 5 -72 4 -100 -3 l-44 -10
34 -13 35 -12 -53 -1 c-36 -1 -51 -5 -46 -12 14 -23 246 14 288 46 28 21 39
23 106 19 41 -3 93 -5 115 -5 37 1 184 -27 194 -35 2 -2 -3 -12 -12 -21 -15
-17 -13 -18 30 -14 32 2 43 0 39 -8 -4 -6 -15 -11 -24 -12 -9 0 -3 -5 13 -11
17 -6 38 -17 48 -26 16 -14 16 -16 -3 -29 -11 -8 -20 -20 -20 -28 0 -16 35
-30 68 -26 21 2 21 1 10 -24 -10 -21 -9 -28 2 -35 10 -6 6 -9 -14 -12 -26 -3
-23 -5 30 -33 59 -30 59 -30 27 -33 -18 -2 -33 -7 -33 -12 0 -14 71 -23 189
-25 72 -1 116 -5 118 -12 2 -6 20 -9 41 -7 20 2 63 6 96 10 l59 6 -29 18 c-29
17 -88 20 -134 5 -14 -4 -20 -2 -20 9 0 16 53 32 71 20 8 -5 9 -3 4 6 -4 7 -2
16 6 21 10 6 6 9 -14 9 -16 0 -26 4 -22 10 3 6 -5 10 -19 10 -13 0 -31 7 -40
15 -8 8 -20 15 -26 15 -6 0 -8 5 -5 11 4 6 22 8 41 6 18 -3 35 0 36 5 5 15 87
30 106 19 15 -9 14 -11 -8 -19 -21 -8 -16 -10 35 -16 78 -9 156 -30 158 -42 1
-5 -21 -10 -48 -12 -28 -2 -54 -7 -59 -13 -6 -5 -23 -9 -38 -9 -15 0 -28 -5
-28 -10 0 -13 49 -32 66 -26 12 5 148 -44 161 -58 5 -5 -19 -7 -52 -6 -33 2
-71 2 -85 1 -24 -2 -24 -2 -6 -16 11 -8 35 -15 54 -15 18 0 54 -6 80 -14 26
-8 61 -18 77 -22 29 -7 28 -7 -20 -19 l-50 -12 35 -10 c19 -6 29 -12 22 -12
-7 -1 -10 -5 -7 -11 3 -6 -4 -10 -17 -10 -34 0 -68 -11 -68 -22 0 -5 15 -15
33 -23 20 -9 25 -14 14 -15 -35 0 -11 -23 40 -39 28 -9 55 -20 60 -24 6 -7
-82 -1 -112 7 -5 2 -19 0 -30 -4 l-20 -8 20 -7 c11 -3 34 -13 50 -20 l30 -14
-30 0 c-16 1 -52 -2 -80 -6 -43 -5 -47 -4 -30 7 15 9 20 24 20 53 0 37 -2 40
-35 46 -103 20 -320 15 -237 -6 27 -7 28 -25 1 -25 -8 0 -43 -18 -78 -40 -35
-22 -68 -40 -74 -40 -6 0 -14 -5 -18 -11 -5 -9 13 -10 67 -5 69 6 73 5 54 -9
-11 -9 -27 -20 -35 -25 -29 -16 -4 -18 85 -4 50 7 94 14 98 14 5 0 5 5 1 11
-5 8 -1 8 14 0 11 -6 32 -11 46 -11 13 0 26 -5 28 -12 3 -8 15 -9 49 0 34 8
59 8 107 -2 35 -8 66 -16 69 -19 13 -14 -55 -19 -131 -11 -106 12 -273 9 -310
-6 -28 -10 -28 -11 -10 -25 10 -8 27 -15 37 -15 32 0 17 -20 -15 -21 l-33 0
24 -17 c14 -9 41 -22 60 -28 l36 -12 -31 -1 c-16 -1 -34 3 -40 8 -15 16 -107
15 -144 -2 -26 -11 -30 -16 -15 -16 19 -2 19 -2 2 -12 -27 -16 -11 -27 35 -23
l43 3 -40 -13 -40 -14 46 -13 c43 -11 55 -27 36 -45 -3 -4 -32 -6 -64 -5 -91
1 -44 -16 64 -24 83 -6 92 -9 75 -20 -27 -19 -164 -19 -247 0 -11 2 -27 0 -35
-5 -12 -8 -9 -10 12 -10 15 0 30 -4 33 -10 4 -6 -7 -10 -25 -10 -18 0 -33 6
-36 15 -4 8 -10 15 -16 15 -5 0 -7 -4 -3 -9 10 -17 -15 -22 -36 -7 -12 8 -32
12 -45 10 -14 -3 -24 0 -24 7 0 7 -10 9 -25 7 -14 -3 -25 -1 -25 3 0 5 -13 9
-28 9 -15 0 -32 4 -37 9 -6 5 -21 11 -35 14 -20 3 -18 5 10 6 l35 3 -29 12
-29 13 31 5 c17 2 29 1 26 -4 -3 -4 2 -8 10 -8 17 0 30 16 19 23 -5 2 -25 8
-46 11 -30 6 -37 4 -31 -5 5 -9 1 -10 -17 -6 -13 4 -51 7 -84 7 -49 1 -56 3
-41 12 11 6 48 11 82 12 35 0 64 2 64 4 0 2 -19 12 -42 22 -36 16 -38 26 -5
21 4 0 7 3 7 8 0 5 -14 11 -31 15 -17 3 -28 10 -25 14 3 5 -8 9 -25 10 -43 1
-89 12 -89 21 0 10 75 21 136 21 23 0 46 5 49 10 7 12 3 12 -86 10 -48 -1 -69
3 -78 14 -11 13 -11 16 3 16 9 0 16 5 16 10 0 6 -9 10 -21 10 -11 0 -46 8 -77
17 l-57 17 44 8 c67 12 69 14 27 28 -22 7 -49 21 -60 31 -15 15 -35 19 -88 19
-52 0 -68 3 -68 14 0 9 7 12 19 9 11 -3 28 0 38 6 17 10 17 10 -3 11 -12 0
-54 17 -94 37 l-72 37 33 15 c46 21 46 21 25 33 -11 6 -50 10 -88 9 -43 -2
-68 2 -68 8 0 6 15 11 33 11 26 0 76 18 57 20 -80 10 -112 13 -142 13 -21 -1
-38 3 -38 8 0 5 9 9 19 9 11 0 22 4 25 9 8 13 -53 22 -74 11 -13 -7 -21 -7
-25 0 -3 5 -22 10 -41 10 -24 0 -34 4 -31 13 2 6 11 11 20 11 9 -1 15 2 12 6
-3 5 7 11 22 13 26 4 25 4 -5 6 -22 1 -31 5 -26 13 5 8 -2 9 -24 5 -18 -4 -32
-4 -32 0 0 13 44 53 57 53 8 0 12 4 9 9 -4 5 0 11 6 14 7 2 0 4 -17 4 -16 1
-48 -9 -70 -20 -22 -12 -47 -20 -57 -18 -9 1 -19 -3 -23 -9 -7 -12 -35 -14
-35 -2 0 4 17 15 38 25 l37 17 -72 -6 c-75 -6 -94 3 -48 24 14 6 25 16 25 22
0 6 -18 1 -41 -10 -23 -12 -43 -19 -46 -16 -3 2 9 11 25 20 16 8 32 22 35 30
5 13 2 13 -21 3 -15 -6 -38 -18 -52 -25 -17 -10 -14 -5 10 17 41 36 37 38 -21
11 -47 -21 -84 -26 -74 -10 3 6 2 10 -4 10 -5 0 -13 -5 -16 -11 -4 -6 -14 -8
-22 -5 -9 4 -27 -7 -45 -29 -17 -19 -35 -32 -40 -29 -5 3 -21 -2 -36 -12 -15
-10 -33 -19 -40 -20 -8 -2 -23 -11 -35 -21 -12 -10 -1 6 23 36 25 30 71 74
104 98 32 24 55 43 50 43 -15 0 -119 -63 -127 -77 -15 -26 -69 -83 -78 -83
-16 0 -10 22 17 57 14 18 23 37 19 42 -3 6 11 36 32 68 20 32 36 66 36 76 -1
9 2 15 8 12 5 -4 9 1 9 9 0 9 -3 16 -6 16 -4 0 -43 -37 -86 -82 -57 -59 -72
-72 -54 -43 14 22 26 43 26 48 0 9 40 68 55 80 16 13 -38 -4 -60 -19 -29 -21
-35 -17 -20 13 11 21 12 29 2 35 -8 6 -2 17 23 39 19 17 28 27 20 23 -8 -4
-25 -16 -37 -27 -13 -11 -23 -16 -23 -10 0 18 81 85 96 79 8 -3 14 -2 14 3 0
9 72 57 100 66 11 3 20 10 20 15 0 21 -19 16 -70 -21 -87 -62 -93 -64 -85 -40
8 27 -10 27 -55 0 -48 -29 -80 -60 -80 -77 0 -9 17 -1 51 23 28 20 54 34 57
31 3 -3 0 -6 -7 -6 -7 0 -10 -4 -7 -8 6 -11 -27 -39 -40 -35 -5 2 -23 -11 -39
-27 -19 -20 -23 -29 -12 -25 21 9 23 -8 2 -25 -8 -7 -12 -17 -9 -22 4 -5 -3
-23 -15 -39 -12 -16 -21 -43 -21 -64 0 -19 -5 -35 -11 -35 -6 0 -9 -6 -6 -12
2 -7 0 -22 -5 -33 -8 -18 -8 -18 -4 3 4 19 2 21 -10 11 -7 -6 -12 -15 -9 -19
3 -4 -4 -19 -15 -33 -21 -26 -28 -63 -10 -52 6 4 8 10 5 14 -2 5 4 16 15 26
18 16 18 16 13 -4 -6 -22 -50 -71 -64 -71 -5 0 -9 -7 -9 -16 0 -9 -8 -28 -18
-42 -10 -15 -31 -55 -47 -89 -42 -91 -58 -84 -31 13 15 54 27 124 21 124 -12
0 -35 -63 -35 -94 0 -35 -17 -57 -29 -38 -4 6 -12 -2 -20 -19 -10 -24 -16 -27
-27 -18 -8 6 -14 23 -15 38 0 23 -1 24 -9 6 -5 -11 -9 -18 -10 -15 -8 28 -11
56 -10 118 1 75 -10 92 -29 45 -10 -26 -10 -26 -4 7 3 19 6 68 5 109 -1 41 3
92 8 114 7 33 6 38 -5 26 -7 -8 -21 -36 -29 -64 l-16 -50 5 59 c3 33 17 87 30
120 13 33 23 61 22 62 -7 7 -26 -15 -45 -51 -12 -22 -21 -33 -22 -25 0 9 11
31 24 50 13 19 26 45 30 58 4 12 11 22 16 22 4 0 6 -10 3 -22 -4 -19 -3 -20 6
-8 6 8 11 25 11 36 0 12 7 27 16 34 18 16 46 79 39 90 -3 4 2 13 10 20 8 7 15
20 15 29 0 9 8 25 17 36 l16 20 -8 -20 c-11 -33 -36 -157 -32 -162 3 -2 14 16
26 39 21 42 22 43 18 11 -2 -22 1 -33 10 -33 9 0 7 -9 -7 -32 -22 -37 -26 -53
-9 -42 6 3 3 -6 -7 -22 -18 -29 -18 -29 1 -14 19 14 19 14 3 -6 -10 -11 -19
-31 -19 -45 -1 -18 -3 -15 -9 11 -5 25 -8 28 -9 12 0 -13 -5 -31 -10 -40 -6
-11 -4 -21 5 -30 11 -10 14 -10 14 2 0 7 7 17 16 20 9 3 14 13 10 21 -3 8 -1
17 4 20 14 9 114 147 145 200 31 54 61 84 148 151 72 54 87 57 31 6z m-837 -2
c-2 -35 -17 -41 -17 -7 0 21 7 37 16 37 2 0 2 -13 1 -30z m1103 17 c0 -2 -9
-12 -21 -23 -15 -14 -20 -15 -17 -4 2 8 10 18 18 22 19 8 20 9 20 5z m-1587
-126 c15 -14 27 -31 27 -39 0 -7 -12 0 -26 17 -29 35 -43 39 -45 14 -1 -17 -2
-17 -6 -1 -2 10 -18 31 -34 49 -64 69 -8 42 84 -40z m280 43 c4 -21 10 -79 12
-129 3 -73 1 -85 -8 -63 -16 41 -37 45 -27 5 5 -18 11 -54 15 -80 6 -42 10
-50 36 -59 16 -5 29 -16 29 -24 0 -8 4 -22 9 -32 16 -32 33 -93 27 -99 -3 -4
-6 -1 -6 5 0 7 -4 12 -10 12 -6 0 -6 -9 0 -26 6 -16 7 -31 1 -38 -12 -15 -26
-113 -22 -160 2 -26 -1 -36 -8 -32 -7 5 -11 -3 -11 -19 0 -17 -4 -24 -12 -19
-8 5 -9 0 -6 -14 4 -14 2 -22 -7 -22 -7 0 -16 -6 -18 -12 -3 -7 -6 19 -6 57
-1 70 -17 126 -19 66 0 -17 -3 -39 -6 -49 -3 -9 -2 -32 4 -51 8 -28 7 -31 -5
-21 -8 7 -22 10 -30 6 -13 -5 -15 5 -9 73 7 84 1 131 -18 131 -7 0 -9 -24 -6
-75 3 -48 1 -72 -5 -68 -6 4 -7 -4 -4 -19 5 -19 2 -28 -10 -32 -23 -9 -28 -1
-58 89 -15 44 -31 85 -37 92 -5 6 -8 17 -6 25 1 7 -10 27 -26 43 -27 28 -28
28 -21 6 5 -16 4 -21 -4 -17 -6 4 -11 15 -11 24 -1 9 -7 28 -14 41 -17 32 -10
57 11 40 23 -19 12 9 -15 39 -12 14 -19 28 -16 31 4 3 9 0 11 -6 8 -21 22 -15
16 7 -3 11 -9 18 -13 15 -4 -3 -14 3 -21 12 -12 15 -12 16 6 9 19 -7 19 -6 -1
16 -12 13 -19 29 -17 36 3 6 0 12 -5 12 -5 0 -13 11 -16 24 -4 17 -26 36 -69
60 -60 35 -66 51 -7 21 25 -13 29 -13 24 -1 -3 8 -16 22 -28 30 -13 8 -38 34
-56 58 -33 42 -32 42 25 -12 31 -30 74 -81 95 -112 37 -56 37 -56 48 -33 9 20
8 31 -9 60 -11 19 -19 40 -17 47 7 19 73 -76 118 -167 21 -44 40 -75 40 -70 0
6 10 -1 22 -15 17 -20 20 -21 14 -5 -5 11 -11 28 -13 37 -3 10 -9 15 -14 12
-5 -3 -9 2 -9 10 0 15 -30 87 -41 96 -12 11 -47 77 -53 100 -7 23 -4 22 24
-10 l32 -35 -7 30 c-4 21 7 8 34 -40 21 -38 51 -81 66 -95 l27 -25 -6 28 c-3
15 -8 39 -11 53 -4 16 -2 23 5 19 5 -3 10 -16 10 -27 0 -12 9 -41 20 -64 23
-47 50 -65 50 -34 0 10 5 22 10 25 15 9 13 18 -12 48 -21 26 -44 78 -55 125
-11 45 19 21 48 -40 17 -35 27 -54 23 -43 -3 11 -8 44 -10 73 -3 29 -9 73 -13
98 -11 55 -1 47 24 -21 10 -27 22 -54 27 -60 6 -6 7 -5 4 5 -3 8 -12 50 -19
93 -11 56 -12 77 -3 74 6 -2 15 -21 19 -43z m454 4 c-3 -8 -6 -5 -6 6 -1 11 2
17 5 13 3 -3 4 -12 1 -19z m20 -20 c-3 -8 -6 -5 -6 6 -1 11 2 17 5 13 3 -3 4
-12 1 -19z m982 19 c-2 -1 -13 -9 -24 -17 -19 -14 -19 -14 -6 3 7 9 18 17 24
17 6 0 8 -1 6 -3z m-1280 -59 c0 -28 -2 -30 -9 -13 -12 28 -12 45 0 45 6 0 10
-15 9 -32z m2526 22 c3 -6 -1 -7 -9 -4 -18 7 -21 14 -7 14 6 0 13 -4 16 -10z
m-2465 -20 c0 -24 -15 -27 -24 -4 -3 8 -2 12 4 9 6 -3 10 -1 10 4 0 6 2 11 5
11 3 0 5 -9 5 -20z m500 -5 c0 -8 -4 -15 -10 -15 -5 0 -7 7 -4 15 4 8 8 15 10
15 2 0 4 -7 4 -15z m946 0 c-10 -8 -23 -12 -29 -8 -11 7 12 23 33 23 12 -1 11
-4 -4 -15z m-2319 -20 c2 -6 -6 -11 -17 -12 -12 -1 -20 4 -20 13 0 17 31 16
37 -1z m2393 5 c-8 -6 -24 -15 -35 -21 -16 -8 -15 -6 4 10 13 12 28 21 35 21
6 0 4 -5 -4 -10z m-140 -4 c0 -2 -7 -7 -16 -10 -8 -3 -12 -2 -9 4 6 10 25 14
25 6z m-1163 -28 c-3 -8 -6 -5 -6 6 -1 11 2 17 5 13 3 -3 4 -12 1 -19z m-1133
-38 c5 0 0 12 -9 28 -15 23 -15 25 -1 11 9 -8 18 -26 21 -39 5 -24 55 -84 63
-75 8 7 33 -16 27 -25 -3 -4 3 -14 12 -21 12 -10 14 -10 9 -1 -4 6 -4 12 0 12
4 0 15 -6 24 -12 9 -7 3 -1 -14 15 -41 37 -22 35 21 -3 18 -16 28 -30 21 -30
-6 0 3 -16 22 -35 19 -19 30 -35 25 -35 -4 0 0 -10 11 -22 18 -21 17 -21 -15
2 -34 24 -34 24 -29 2 5 -19 2 -18 -34 11 -23 18 -59 51 -81 75 -23 24 -47 40
-54 37 -8 -2 -11 0 -8 5 3 6 0 10 -8 10 -7 0 -24 11 -37 25 -13 14 -28 25 -34
25 -17 1 -63 40 -47 40 14 0 80 -45 93 -64 4 -6 16 -12 27 -12 17 -1 18 2 10
17 -5 11 -15 19 -22 19 -14 1 -45 26 -67 55 -9 13 -3 10 18 -8 49 -39 62 -33
21 10 -29 33 -30 34 -3 10 16 -15 34 -27 38 -27z m760 -29 c1 -16 4 -27 8 -25
4 3 11 -13 14 -35 4 -23 10 -39 14 -36 11 7 19 -44 13 -81 -3 -17 0 -42 7 -55
l13 -24 -22 20 -22 19 5 -54 6 -55 -13 50 c-7 28 -17 56 -21 63 -4 7 -15 40
-25 75 -10 34 -22 70 -26 80 -5 12 -3 16 6 12 11 -4 14 6 14 40 0 25 -3 45 -7
45 -5 0 -8 7 -8 15 0 30 43 -22 44 -54z m-679 -9 c-7 -7 -45 28 -57 53 -7 12
3 7 26 -14 19 -19 34 -37 31 -39z m2280 48 c3 -6 -1 -7 -9 -4 -18 7 -21 14 -7
14 6 0 13 -4 16 -10z m-2535 -30 c0 -5 -2 -10 -4 -10 -3 0 -8 5 -11 10 -3 6
-1 10 4 10 6 0 11 -4 11 -10z m1287 -12 c-3 -8 -6 -5 -6 6 -1 11 2 17 5 13 3
-3 4 -12 1 -19z m-1342 0 c14 -6 25 -15 25 -20 0 -4 6 -8 13 -8 7 0 23 -9 35
-20 12 -12 22 -18 22 -14 0 4 12 -3 27 -17 31 -27 17 -4 -26 44 -53 58 40 20
130 -55 26 -21 50 -38 54 -38 12 0 50 -33 86 -75 l34 -40 -30 19 c-16 10 -41
28 -55 40 -52 45 -64 49 -18 6 61 -57 63 -84 3 -34 -58 47 -58 31 0 -26 24
-24 42 -47 40 -51 -3 -3 2 -12 10 -19 11 -9 15 -9 15 -1 0 7 5 9 11 5 8 -5 8
-9 -1 -14 -9 -5 -9 -9 -1 -14 6 -4 16 -17 22 -29 7 -12 -20 8 -59 46 -38 37
-73 67 -76 67 -4 0 18 -24 49 -54 30 -30 55 -60 55 -67 0 -7 12 -25 27 -41 38
-39 21 -47 -22 -9 -20 17 -43 32 -53 32 -44 4 -59 7 -80 18 -12 6 -22 9 -22 7
0 -13 -135 47 -180 80 -28 20 -53 34 -56 31 -3 -2 19 -21 49 -40 29 -20 60
-44 68 -53 13 -16 12 -17 -6 -12 -11 3 -29 9 -40 13 -11 4 -5 -2 13 -14 40
-26 42 -37 3 -16 -17 8 -36 12 -44 10 -7 -3 -26 -1 -42 5 -41 16 -41 6 0 -20
28 -18 33 -25 24 -36 -8 -10 -16 -11 -29 -4 -10 6 -34 10 -52 10 l-33 -1 25
-21 c20 -17 21 -20 5 -13 -11 5 -30 9 -42 9 -12 1 -19 3 -17 5 4 4 -80 41
-127 56 -16 5 -19 4 -14 -6 6 -8 4 -11 -7 -7 -8 4 -21 2 -29 -2 -11 -7 -9 -10
6 -15 11 -4 27 -11 35 -16 8 -5 27 -14 42 -20 16 -6 26 -15 23 -19 -3 -5 -21
-2 -40 6 -52 21 -77 18 -37 -6 35 -22 42 -33 15 -24 -12 4 -8 -4 10 -20 30
-28 28 -31 -35 -39 -24 -4 -38 -1 -41 7 -3 7 -15 16 -26 19 -13 3 -19 1 -15
-5 5 -7 -3 -9 -20 -6 -20 4 -26 2 -22 -8 7 -18 -3 -18 -47 1 -31 13 -36 13
-31 1 6 -15 25 -21 90 -32 71 -11 68 -21 -7 -23 -41 -1 -90 -5 -109 -9 l-34
-8 34 -13 c75 -28 77 -30 18 -28 -31 1 -54 5 -52 8 6 10 -35 43 -43 35 -4 -4
-3 -10 3 -14 5 -4 9 -17 8 -29 -1 -16 7 -25 30 -33 l31 -11 -30 -13 c-16 -7
-45 -11 -62 -8 -21 3 -33 0 -33 -7 0 -6 6 -11 14 -11 8 0 16 -7 20 -15 3 -8
11 -13 18 -12 7 2 3 -1 -9 -7 -29 -12 -29 -23 -2 -31 33 -11 16 -16 -19 -6
-22 7 -32 6 -35 -2 -3 -9 -47 -11 -153 -10 -83 1 -163 -2 -179 -7 -26 -9 -24
-9 18 -6 35 3 45 1 38 -8 -8 -9 4 -10 49 -2 45 7 66 7 87 -4 l28 -13 -35 -9
c-67 -18 -79 -27 -39 -27 37 -1 62 -27 36 -36 -33 -13 -227 -9 -227 5 0 5 17
12 38 16 63 11 72 23 17 24 -63 0 -107 -11 -82 -19 12 -4 -2 -14 -45 -31 -108
-42 -101 -64 15 -55 66 5 78 4 63 -6 -11 -6 -62 -14 -115 -16 -99 -5 -158 -21
-91 -24 19 -1 49 -3 65 -4 17 -1 41 2 55 7 33 13 225 12 248 -1 13 -8 6 -10
-32 -11 -27 0 -63 -4 -80 -10 -17 -5 -58 -13 -91 -17 l-60 -8 53 -3 c28 -2 52
-5 52 -7 0 -2 -11 -16 -25 -30 -18 -17 -37 -25 -60 -25 -41 0 -58 -20 -18 -21
24 -1 22 -3 -12 -11 -22 -5 -59 -11 -82 -11 -22 -1 -44 -5 -48 -9 -4 -4 -26
-5 -49 -2 -22 3 -52 2 -65 -3 -21 -8 -17 -11 35 -21 32 -6 70 -10 84 -8 14 2
30 4 35 5 6 1 3 6 -5 11 -12 8 -11 10 7 10 29 0 38 -16 16 -29 -15 -9 -14 -11
12 -12 23 -1 20 -3 -15 -9 -70 -11 -420 -21 -420 -11 0 4 26 11 58 14 31 4 75
12 97 19 l40 11 -37 11 c-20 6 -39 14 -43 18 -4 3 -23 4 -42 1 -28 -5 -34 -3
-28 7 6 10 31 11 104 7 68 -3 82 -3 48 3 -46 8 -75 20 -48 20 7 0 9 5 6 10 -3
6 4 10 17 10 14 0 19 3 11 8 -7 4 -11 16 -11 27 2 17 10 20 62 23 65 3 172 30
126 31 -20 1 -22 3 -10 12 12 8 11 9 -5 5 -11 -3 -82 -8 -158 -11 -76 -3 -142
-6 -145 -6 -4 -1 -16 0 -27 1 -13 1 -6 6 18 13 21 7 38 17 38 22 0 6 34 10 87
9 84 -1 86 -1 47 12 -22 7 -51 13 -64 13 -22 1 -50 25 -51 44 0 5 27 7 60 5
53 -3 58 -1 43 11 -10 7 -31 19 -48 27 l-30 13 43 1 c23 0 42 5 42 10 0 6 -8
10 -19 10 -10 0 -26 11 -35 25 -16 25 -16 25 11 25 20 0 24 3 16 11 -7 7 -19
8 -30 4 -30 -13 -80 -13 -105 1 -23 13 -14 19 26 14 10 -1 16 3 12 8 -6 10 38
22 79 22 12 0 28 7 35 15 10 12 10 15 -4 15 -25 0 -19 15 12 26 45 17 39 49
-11 64 -66 20 -66 20 6 15 39 -2 67 0 67 5 0 6 15 10 33 11 26 0 28 2 12 8
-11 5 -24 6 -28 4 -4 -3 -13 0 -20 5 -7 5 -21 12 -32 14 -18 4 -17 6 8 16 15
6 55 16 88 21 72 12 81 18 55 37 -18 13 -18 14 8 24 15 5 45 13 67 16 22 4 42
11 45 16 3 5 -5 6 -19 3 -14 -4 -28 -2 -31 4 -4 6 -16 11 -27 11 -22 0 -44 42
-25 49 56 20 60 22 46 31 -17 10 -13 12 60 28 38 8 40 10 15 11 -16 1 -37 6
-45 12 -11 7 1 9 45 8 33 -1 76 -1 95 0 30 1 32 3 17 12 -10 6 -25 8 -33 5 -9
-3 -12 -1 -9 4 3 6 -5 10 -18 10 -14 0 -30 6 -36 14 -9 11 -6 17 18 27 16 7
27 17 25 21 -3 5 -2 8 3 7 4 -1 20 1 34 5 16 5 45 1 77 -9 52 -17 68 -34 35
-36 -10 0 0 -6 22 -14 22 -7 36 -13 30 -14 -5 -1 -3 -6 5 -11 11 -7 7 -10 -17
-10 -35 0 -83 -18 -83 -31 0 -5 15 -6 33 -3 30 4 30 4 7 -6 -14 -6 -33 -9 -42
-6 -25 6 -33 -11 -9 -19 28 -9 105 15 91 29 -20 20 -10 24 28 10 20 -7 45 -13
55 -14 9 0 17 -5 17 -11 0 -7 -12 -9 -32 -6 -38 5 -82 -8 -73 -23 3 -6 -5 -14
-19 -20 -14 -5 -26 -11 -26 -14 0 -5 57 2 79 10 8 2 23 -2 35 -9 12 -8 44 -13
74 -12 58 1 66 -14 12 -28 -42 -11 -30 -22 44 -41 61 -16 65 -15 105 22 7 7
20 11 28 8 8 -3 11 -1 8 4 -3 6 -18 10 -33 10 -19 0 -23 3 -13 9 22 14 2 31
-38 31 -20 0 -41 4 -47 9 -5 5 -18 12 -29 15 -11 3 5 3 35 0 54 -6 55 -5 31
12 -13 9 -38 21 -55 25 -29 8 -29 8 4 3 52 -8 111 -6 125 6 6 5 15 7 18 3 4
-3 7 -2 7 4 0 6 -17 18 -37 27 l-38 16 35 -6 c19 -3 44 -5 55 -5 11 0 45 1 75
1 39 0 51 3 40 10 -11 7 -12 10 -2 10 7 0 20 -7 29 -15 8 -9 18 -13 21 -10 4
3 0 10 -8 16 -27 17 10 30 64 23 38 -5 47 -3 41 6 -5 9 -4 11 4 6 6 -4 9 -12
6 -17 -7 -10 6 -12 42 -9 12 1 30 -8 40 -19 9 -12 23 -21 31 -21 7 0 36 -10
63 -21 27 -12 52 -20 54 -17 4 4 -65 34 -119 52 -14 5 -16 9 -7 20 9 11 5 16
-19 26 -16 7 -30 16 -30 20 0 4 -12 11 -26 14 -15 4 -25 9 -22 11 3 4 24 -1
114 -24 48 -13 62 2 26 28 -17 11 -37 21 -47 21 -9 0 -29 7 -45 15 -17 9 -32
15 -35 15 -5 0 -7 9 -2 11 1 0 14 -4 30 -10 18 -7 36 -7 53 -1 34 13 28 16 82
-37 26 -27 58 -57 71 -68 l24 -20 -11 20 c-6 11 -30 40 -54 65 -23 25 -43 48
-43 52 0 4 -4 11 -10 17 -13 12 -97 41 -105 36 -4 -2 -7 2 -7 10 0 12 4 12 27
0 15 -8 30 -12 33 -9 6 7 69 -25 79 -40 5 -7 8 -7 8 0 0 5 -6 16 -12 23 -11
12 -9 13 7 7 16 -5 15 -3 -5 13 -18 14 -27 16 -32 8 -6 -9 -8 -9 -8 1 0 26 33
24 91 -6 32 -17 59 -27 59 -22 0 5 -19 25 -42 44 -42 36 -40 46 7 24z m2950
-18 c-22 -10 -44 -19 -50 -19 -15 -1 28 26 50 32 39 10 39 5 0 -13z m-2579
-21 c4 -8 1 -8 -14 0 -12 6 -24 16 -28 22 -4 8 -1 8 14 0 12 -6 24 -16 28 -22z
m999 1 c-4 -12 -9 -19 -12 -17 -3 3 -2 15 2 27 4 12 9 19 12 17 3 -3 2 -15 -2
-27z m1899 11 c3 -5 -1 -14 -8 -20 -12 -10 -14 -9 -11 6 2 10 4 19 4 21 2 5
10 2 15 -7z m-2697 -23 c-3 -8 -6 -5 -6 6 -1 11 2 17 5 13 3 -3 4 -12 1 -19z
m2775 7 c11 -15 10 -22 -4 -22 -7 0 -24 -3 -36 -7 -21 -7 -23 -6 -13 12 6 11
8 22 5 25 -4 3 4 5 17 4 13 0 27 -6 31 -12z m-2894 -33 c13 -8 32 -33 44 -56
l20 -41 -38 37 c-22 20 -52 48 -69 62 -29 24 -29 25 -5 19 14 -4 35 -13 48
-21z m3032 -1 c0 -20 -61 -24 -67 -4 -2 5 12 10 32 11 19 1 35 -2 35 -7z
m-3980 -11 c0 -5 -4 -10 -9 -10 -6 0 -13 5 -16 10 -3 6 1 10 9 10 9 0 16 -4
16 -10z m2425 -20 c-10 -11 -20 -18 -23 -15 -7 6 18 35 31 35 5 0 2 -9 -8 -20z
m-2331 2 c2 -4 -11 -6 -30 -4 -19 2 -34 6 -34 8 0 8 59 4 64 -4z m125 -18 c2
-2 -10 -4 -27 -4 -17 0 -34 4 -37 10 -5 9 53 3 64 -6z m1996 6 c-3 -5 -12 -10
-18 -10 -7 0 -6 4 3 10 19 12 23 12 15 0z m-1145 -30 c0 -14 -14 -12 -28 2
-19 19 -14 30 8 18 11 -6 20 -15 20 -20z m1356 2 c-18 -16 -18 -16 -6 6 6 13
14 21 18 18 3 -4 -2 -14 -12 -24z m-2459 12 c-3 -3 -12 -4 -19 -1 -8 3 -5 6 6
6 11 1 17 -2 13 -5z m1928 -16 c0 -23 -24 -72 -25 -52 0 23 13 74 19 74 4 0 7
-10 6 -22z m-1666 -14 c9 -9 -53 7 -63 17 -5 5 5 4 24 -1 18 -5 35 -12 39 -16z
m1398 -6 c-3 -7 -5 -2 -5 12 0 14 2 19 5 13 2 -7 2 -19 0 -25z m-80 -20 c-3
-8 -6 -5 -6 6 -1 11 2 17 5 13 3 -3 4 -12 1 -19z m-1894 -15 c-7 -2 -21 -2
-30 0 -10 3 -4 5 12 5 17 0 24 -2 18 -5z m425 0 c-10 -2 -28 -2 -40 0 -13 2
-5 4 17 4 22 1 32 -1 23 -4z m126 -3 c-7 -7 -19 -7 -35 -1 -23 9 -22 10 11 10
23 1 31 -2 24 -9z m-237 -6 c-3 -3 -12 -4 -19 -1 -8 3 -5 6 6 6 11 1 17 -2 13
-5z m328 -4 c17 -7 14 -9 -13 -9 -20 -1 -31 3 -27 9 7 12 13 12 40 0z m2266
-13 c-10 -9 -11 -8 -5 6 3 10 9 15 12 12 3 -3 0 -11 -7 -18z m-2821 -13 c0 -2
-12 -4 -26 -4 -14 0 -23 4 -20 9 6 8 46 4 46 -5z m2160 -24 c-16 -40 -23 -33
-9 9 6 18 14 30 17 27 2 -3 -1 -19 -8 -36z m-942 -5 c-3 -3 -9 2 -12 12 -6 14
-5 15 5 6 7 -7 10 -15 7 -18z m3722 15 c22 -7 21 -8 -15 -11 -22 -1 -52 -3
-67 -4 -34 -2 -36 3 -5 15 27 11 54 11 87 0z m-4980 -20 c0 -5 -5 -10 -11 -10
-5 0 -7 5 -4 10 3 6 8 10 11 10 2 0 4 -4 4 -10z m4750 -90 c0 -5 -19 -10 -42
-10 -32 0 -39 3 -28 10 20 13 70 13 70 0z m-5694 -24 c12 -13 9 -16 -22 -26
-28 -9 -33 -15 -23 -22 9 -6 -3 -7 -36 -3 -27 4 -69 6 -92 5 -42 -1 -55 11
-30 27 10 6 130 28 175 32 7 1 20 -5 28 -13z m2404 -22 c0 -8 9 -33 21 -55 11
-22 18 -46 16 -52 -2 -7 -16 14 -31 47 -27 61 -33 92 -16 81 6 -3 10 -13 10
-21z m794 -13 c-4 -17 -9 -30 -11 -27 -3 2 -2 19 2 36 4 17 9 30 11 27 2 -2 1
-18 -2 -36z m-447 -3 c-3 -7 -5 -2 -5 12 0 14 2 19 5 13 2 -7 2 -19 0 -25z
m-1662 12 c3 -6 -1 -7 -9 -4 -18 7 -21 14 -7 14 6 0 13 -4 16 -10z m3055 -60
c-20 -13 -43 -13 -35 0 3 6 16 10 28 10 18 0 19 -2 7 -10z m-4259 -45 c-75
-31 -198 -55 -187 -36 3 5 26 14 50 20 24 6 51 18 59 26 9 8 36 16 62 17 25 0
48 5 50 9 3 4 14 5 25 2 15 -4 0 -14 -59 -38z m119 -21 c0 -13 -76 -34 -117
-33 -27 1 -27 1 5 9 40 9 53 20 24 20 -11 0 -23 4 -26 8 -3 5 22 8 55 8 37 -1
59 -5 59 -12z m2457 -56 c-3 -8 -6 -5 -6 6 -1 11 2 17 5 13 3 -3 4 -12 1 -19z
m-2432 -7 c-3 -5 -27 -14 -53 -20 -26 -5 -56 -13 -66 -17 -14 -6 -17 -4 -11 6
6 10 1 11 -21 7 -16 -4 -51 -10 -77 -13 -76 -11 -64 -22 22 -22 43 0 84 -3 91
-7 15 -9 -50 -36 -95 -40 -47 -3 -50 -4 -38 -16 6 -6 35 -15 64 -20 53 -8 53
-8 -11 -3 -36 3 -76 6 -90 7 -17 1 -25 8 -25 21 0 10 -9 22 -20 26 -18 7 -18
8 5 12 16 4 10 6 -20 7 -41 1 -43 3 -26 16 17 13 16 14 -16 9 -27 -5 -35 -3
-35 10 0 14 25 21 58 18 3 -1 22 5 42 12 42 14 331 20 322 7z m110 -1 c-3 -5
-12 -10 -20 -10 -8 0 -17 5 -20 10 -4 6 5 10 20 10 15 0 24 -4 20 -10z m2412
-92 c-2 -13 -4 -5 -4 17 -1 22 1 32 4 23 2 -10 2 -28 0 -40z m890 20 c-3 -8
-6 -5 -6 6 -1 11 2 17 5 13 3 -3 4 -12 1 -19z m512 -40 c11 -10 14 -10 18 0 8
20 20 14 42 -22 28 -45 26 -56 -9 -56 -38 0 -96 49 -87 73 8 20 18 21 36 5z
m105 -21 c5 -18 8 -19 15 -7 12 18 23 8 27 -26 3 -25 2 -25 -11 -8 -13 18 -14
17 -9 -6 5 -20 3 -22 -5 -10 -6 8 -11 11 -11 5 0 -10 -49 65 -50 77 0 16 39
-6 44 -25z m-1981 9 c38 -15 74 -63 60 -77 -6 -6 -15 -4 -22 5 -10 12 -18 13
-32 5 -27 -14 -54 -4 -67 25 -8 18 -7 27 6 40 20 19 15 19 55 2z m1817 -16 c0
-11 -39 -24 -47 -16 -10 10 18 35 33 29 8 -3 14 -9 14 -13z m-3795 -30 c-3 -5
-10 -10 -16 -10 -5 0 -9 5 -9 10 0 6 7 10 16 10 8 0 12 -4 9 -10z m-28 -31
c-35 -9 -72 0 -42 11 10 4 30 4 44 2 l26 -5 -28 -8z m-322 1 c-3 -5 -14 -10
-23 -10 -15 0 -15 2 -2 10 20 13 33 13 25 0z m4467 -86 c-3 -125 -123 -198
-302 -184 -19 2 4 6 51 10 147 12 210 68 226 200 5 41 8 48 16 35 5 -10 9 -37
9 -61z m1868 57 c0 -13 -29 -8 -34 5 -3 7 2 10 15 7 10 -3 19 -9 19 -12z
m-4330 -99 c0 -9 9 -32 20 -49 24 -40 19 -43 -9 -5 -24 34 -40 89 -22 78 6 -4
11 -15 11 -24z m-2010 -12 c0 -6 -23 -9 -52 -8 l-53 1 50 7 c28 4 51 8 53 8 1
1 2 -2 2 -8z m1115 -20 c-3 -5 -27 -10 -53 -9 -35 0 -42 3 -27 9 28 12 88 12
80 0z m2182 -12 c-3 -8 -6 -5 -6 6 -1 11 2 17 5 13 3 -3 4 -12 1 -19z m110
-80 c-3 -8 -6 -5 -6 6 -1 11 2 17 5 13 3 -3 4 -12 1 -19z m-130 -85 c-2 -16
-4 -5 -4 22 0 28 2 40 4 28 2 -13 2 -35 0 -50z m718 47 c3 -5 2 -10 -4 -10 -5
0 -13 5 -16 10 -3 6 -2 10 4 10 5 0 13 -4 16 -10z m-768 -32 c-3 -8 -6 -5 -6
6 -1 11 2 17 5 13 3 -3 4 -12 1 -19z m-2362 -68 c3 -5 2 -10 -4 -10 -5 0 -13
5 -16 10 -3 6 -2 10 4 10 5 0 13 -4 16 -10z m2602 -42 c-3 -7 -5 -2 -5 12 0
14 2 19 5 13 2 -7 2 -19 0 -25z m786 -66 c36 -31 7 -21 -56 20 -102 67 -107
72 -32 32 39 -20 78 -44 88 -52z m-983 24 c0 -20 0 -20 -15 0 -8 10 -14 28
-14 39 0 20 0 20 14 1 8 -11 15 -29 15 -40z m37 -3 c-3 -10 -5 -4 -5 12 0 17
2 24 5 18 2 -7 2 -21 0 -30z m110 0 c-3 -10 -5 -4 -5 12 0 17 2 24 5 18 2 -7
2 -21 0 -30z m30 15 c-3 -8 -6 -5 -6 6 -1 11 2 17 5 13 3 -3 4 -12 1 -19z
m2103 10 c0 -5 9 -8 20 -8 11 0 20 -4 20 -10 0 -5 24 -10 53 -10 34 0 47 -3
38 -9 -15 -10 75 -25 139 -24 43 1 167 -47 149 -57 -13 -9 19 -30 45 -30 9 0
16 -5 16 -10 0 -6 10 -15 23 -20 l22 -9 -22 0 c-13 -1 -23 4 -23 10 0 6 -8 8
-17 5 -37 -11 -188 -9 -210 2 -12 7 -50 12 -85 12 -65 0 -185 22 -215 38 -12
7 5 9 53 5 65 -4 68 -3 44 11 -19 12 -21 15 -7 16 9 0 17 5 17 11 0 7 10 9 25
5 14 -4 25 -2 25 4 0 5 -10 10 -23 10 -13 0 -27 4 -32 8 -6 5 -41 14 -80 21
-38 7 -81 19 -95 27 -23 13 -20 14 47 11 40 -1 73 -5 73 -9z m-4617 -9 c-7 -7
-36 -13 -65 -15 l-53 -3 40 14 c51 17 94 20 78 4z m-128 -9 c-3 -5 -12 -10
-18 -10 -7 0 -6 4 3 10 19 12 23 12 15 0z m3306 -7 c13 -16 12 -17 -3 -4 -10
7 -18 15 -18 17 0 8 8 3 21 -13z m-904 -40 c-3 -10 -5 -2 -5 17 0 19 2 27 5
18 2 -10 2 -26 0 -35z m858 27 c10 -11 14 -20 9 -20 -5 0 -15 9 -22 20 -7 11
-11 20 -9 20 2 0 12 -9 22 -20z m-3312 3 c-7 -2 -19 -2 -25 0 -7 3 -2 5 12 5
14 0 19 -2 13 -5z m2657 -18 c5 3 15 -16 23 -42 14 -45 15 -46 16 -15 1 39 21
43 21 5 l1 -28 13 24 c10 18 15 20 19 10 5 -12 7 -12 17 1 9 12 13 12 17 2 4
-10 9 -8 20 7 8 12 18 19 23 16 5 -3 11 3 13 12 3 10 6 -4 7 -32 1 -34 4 -44
9 -31 9 22 20 10 16 -16 -4 -24 11 -23 28 3 17 23 30 11 21 -18 -5 -15 -4 -15
5 -3 6 8 11 11 11 7 0 -4 9 -3 19 2 15 8 20 7 25 -5 5 -13 9 -14 21 -4 10 9
15 9 15 1 0 -6 7 -11 16 -11 10 0 14 -6 10 -15 -3 -8 -2 -14 2 -14 21 3 32 -3
32 -19 0 -9 10 -22 23 -27 12 -6 23 -20 25 -33 2 -16 8 -22 18 -18 8 3 14 -1
14 -9 0 -8 9 -15 20 -15 19 0 24 -10 21 -39 -2 -7 2 -10 8 -7 5 4 12 -3 16
-14 3 -11 15 -20 25 -20 25 0 35 -17 20 -35 -10 -12 -9 -15 4 -15 9 0 16 -4
16 -10 0 -5 16 -26 35 -46 34 -35 35 -38 20 -60 -8 -13 -21 -24 -27 -24 -6 0
-9 -2 -7 -5 18 -18 180 63 391 196 58 37 116 72 127 79 37 19 22 4 -26 -28
-56 -37 -128 -92 -121 -92 3 0 26 12 52 26 25 14 46 24 46 21 0 -11 -91 -58
-100 -52 -6 3 -15 3 -21 -1 -8 -5 -8 -8 0 -14 7 -4 -9 -18 -39 -34 -27 -15
-50 -25 -50 -22 0 3 18 15 41 26 23 12 39 24 36 26 -7 7 -52 -17 -152 -81 -81
-53 -105 -74 -67 -61 15 5 15 4 2 -6 -24 -21 -25 -59 -1 -65 20 -5 20 -5 -2
-24 -16 -14 -17 -17 -4 -13 9 3 24 3 33 0 13 -5 14 -9 4 -21 -10 -13 -9 -19
10 -35 13 -11 32 -20 44 -20 15 0 17 -3 9 -11 -12 -12 2 -69 18 -69 25 0 255
66 329 95 50 19 130 40 195 50 61 9 140 25 178 35 37 10 65 15 62 9 -4 -5 28
-10 77 -11 l83 -1 -95 -7 c-52 -4 -151 -20 -220 -38 -69 -17 -177 -42 -240
-57 -63 -14 -126 -30 -140 -35 -14 -4 -65 -21 -115 -35 -96 -29 -126 -45 -83
-45 26 0 249 37 281 46 9 3 17 1 17 -5 0 -5 -12 -12 -27 -14 -19 -3 -14 -4 16
-6 34 -1 41 2 33 12 -8 9 60 12 336 14 216 2 341 -1 332 -6 -8 -6 -117 -10
-243 -11 -127 0 -234 -3 -239 -6 -9 -6 -137 -15 -203 -15 -22 0 -85 -7 -140
-16 -55 -9 -108 -16 -117 -17 -9 0 -14 -4 -12 -8 3 -4 -7 -8 -21 -8 -15 0 -24
-4 -20 -10 3 -5 36 -10 73 -11 37 0 76 -4 87 -8 20 -8 20 -8 -1 -15 -12 -4
-47 -4 -78 -1 -37 4 -56 3 -56 -4 0 -6 12 -12 28 -12 24 -1 23 -2 -8 -8 -35
-7 -35 -7 20 -18 l55 -11 -53 -1 c-34 -1 -51 -5 -47 -11 4 -6 23 -10 43 -10
59 2 145 -14 149 -27 3 -8 -6 -9 -34 -1 -21 5 -66 12 -101 14 -52 5 -61 3 -56
-9 4 -11 -1 -13 -23 -10 -27 4 -27 4 5 -11 17 -8 32 -16 32 -18 0 -2 -26 -1
-57 0 l-58 4 30 -32 c24 -25 26 -30 10 -25 -20 7 -20 7 0 -10 20 -17 19 -17
-7 -13 -27 5 -27 5 -12 -23 20 -39 18 -42 -16 -24 -37 19 -44 19 -36 -1 5 -12
2 -15 -9 -10 -11 4 -15 0 -13 -12 2 -10 -3 -17 -14 -17 -9 0 -20 -3 -24 -7 -3
-4 -15 -3 -25 3 -22 12 -27 -9 -6 -30 10 -10 9 -11 -5 -6 -17 7 -23 -2 -19
-31 2 -13 -61 -3 -82 13 -7 6 -21 13 -32 16 -19 7 -19 6 -2 -7 9 -7 17 -17 17
-21 0 -5 7 -16 16 -26 15 -16 14 -17 -7 -12 -15 4 -20 3 -15 -5 13 -21 -27
-13 -52 10 l-23 23 10 -28 c12 -30 9 -32 -20 -17 -23 13 -26 -2 -4 -20 9 -7
13 -15 10 -18 -3 -3 -15 3 -27 14 -12 10 -18 13 -14 7 14 -24 -12 -13 -28 12
-9 14 -24 25 -33 25 -14 0 -13 -3 5 -20 12 -12 22 -24 22 -27 0 -4 -3 -3 -7 0
-3 4 -11 2 -18 -3 -8 -7 -21 0 -41 22 l-29 31 30 -19 30 -18 -23 25 c-12 14
-20 28 -16 31 3 3 0 9 -7 14 -8 5 -10 3 -4 -7 5 -8 4 -10 0 -6 -9 8 -16 37
-10 37 2 0 15 -4 30 -10 24 -9 25 -9 14 13 -11 20 -11 21 5 8 14 -12 16 -12
11 1 -3 8 -18 21 -33 28 -15 7 -35 16 -44 21 -10 5 -23 7 -30 5 -7 -1 -10 -1
-5 1 4 3 5 9 1 14 -3 5 3 9 13 9 16 1 16 2 3 13 -12 9 -14 32 -12 106 3 81 0
103 -24 173 -15 43 -38 90 -50 103 -23 25 -27 71 -6 69 29 -2 33 -5 27 -14 -4
-6 5 -5 19 2 33 15 33 28 0 28 -22 0 -24 2 -14 15 10 12 9 16 -3 21 -9 3 -13
13 -10 25 4 14 1 18 -9 14 -10 -4 -26 11 -49 47 -19 29 -33 56 -32 60 2 4 -8
10 -21 14 -26 6 -40 29 -29 46 3 7 1 8 -5 4 -7 -4 -12 -1 -12 10 0 12 -3 14
-13 6 -10 -8 -12 6 -12 71 0 83 -8 112 -29 100 -6 -3 -6 0 2 8 17 18 15 30 -3
23 -12 -5 -15 3 -15 35 0 23 -4 41 -9 41 -5 0 -12 12 -17 28 -7 26 -7 26 -15
-13 -4 -22 -3 -47 1 -56 8 -13 4 -78 -5 -87 -1 -2 -5 13 -7 32 -2 19 0 32 4
30 4 -3 5 3 1 12 -5 14 -11 8 -26 -27 -15 -35 -17 -57 -12 -111 5 -57 4 -67
-8 -62 -10 4 -15 21 -15 54 -1 57 -19 101 -33 79 -6 -10 -9 -7 -10 11 -3 50
-6 67 -17 86 -8 13 -11 15 -12 4 0 -17 -23 13 -33 45 -6 18 -5 18 12 -3 l19
-22 6 37 c4 21 6 59 5 86 -1 26 1 50 4 54 4 3 7 -3 7 -15 0 -12 4 -22 10 -22
5 0 17 -14 25 -31 9 -17 19 -28 22 -25 11 10 34 -68 28 -92 -3 -14 -2 -21 4
-18 5 3 12 24 16 45 4 22 12 44 18 50 7 5 12 32 12 59 0 28 3 48 8 45 4 -2 7
2 8 9 0 10 2 10 6 0 2 -6 9 -10 13 -7z m650 -21 c0 -2 -9 0 -20 6 -11 6 -20
13 -20 16 0 2 9 0 20 -6 11 -6 20 -13 20 -16z m1536 3 c4 -4 -10 -7 -32 -6
-30 0 -34 2 -19 8 22 9 41 8 51 -2z m-4872 -12 c22 -17 29 -16 -158 -20 -75
-2 -94 0 -80 8 45 26 209 34 238 12z m3362 -36 c3 -6 -5 -3 -20 6 -14 10 -26
19 -26 22 0 7 39 -17 46 -28z m-3263 14 c-7 -2 -19 -2 -25 0 -7 3 -2 5 12 5
14 0 19 -2 13 -5z m-42 -36 c-4 -4 -60 -9 -122 -11 -63 -1 -119 -5 -124 -8 -6
-2 -21 -2 -35 3 l-25 7 25 2 c48 4 82 9 85 12 2 2 48 3 104 3 55 0 96 -4 92
-8z m2436 -29 c-3 -7 -5 -2 -5 12 0 14 2 19 5 13 2 -7 2 -19 0 -25z m-426 -52
l20 -31 -7 29 c-5 21 -4 27 5 22 6 -4 11 0 12 11 0 11 3 13 6 5 2 -7 13 -17
23 -22 14 -7 17 -6 16 7 -2 25 20 26 31 1 l11 -23 10 25 c8 18 11 20 11 7 1
-10 8 -20 17 -24 10 -4 14 -13 10 -26 -3 -12 -1 -26 5 -33 9 -11 18 -41 22
-74 1 -8 -3 -14 -10 -13 -9 2 -10 -4 -3 -23 13 -33 -9 -156 -27 -150 -6 3 -13
-5 -15 -17 -2 -15 -9 -21 -21 -19 -14 2 -16 -2 -11 -22 5 -22 3 -26 -15 -26
-12 0 -21 -4 -21 -10 0 -5 -9 -10 -20 -10 -11 0 -20 -4 -20 -10 0 -5 -7 -7
-16 -3 -12 4 -14 0 -8 -21 4 -19 2 -27 -10 -32 -9 -3 -16 -12 -16 -20 0 -8 -6
-11 -17 -7 -13 5 -15 2 -10 -11 4 -10 1 -19 -9 -23 -8 -3 -13 -12 -10 -19 5
-14 -2 -17 -37 -17 -13 0 -16 -5 -12 -18 5 -14 1 -19 -13 -19 -15 0 -19 -6
-16 -26 1 -16 -2 -24 -9 -21 -7 2 -21 0 -31 -6 -18 -9 -18 -10 5 -28 l24 -18
-25 5 c-14 2 -19 1 -11 -2 11 -5 11 -8 0 -14 -10 -7 -10 -11 1 -24 16 -21 14
-23 -37 -34 -34 -8 -43 -7 -47 5 -3 8 -16 14 -28 13 -46 -4 -78 0 -78 10 0 6
8 10 18 10 14 0 15 2 2 10 -8 5 -35 10 -60 10 -25 0 -52 -5 -60 -10 -13 -8
-12 -10 5 -10 33 0 3 -17 -41 -23 -50 -6 -81 8 -63 29 6 8 16 14 21 14 5 0 16
6 23 14 12 12 10 16 -15 26 -38 16 -38 27 0 35 28 6 43 25 20 25 -5 0 -10 5
-10 10 0 6 17 10 38 11 34 0 35 1 14 11 -30 15 -26 48 8 65 14 7 19 13 13 13
-7 0 -13 5 -13 10 0 6 7 10 15 10 8 0 15 6 15 14 0 7 -7 19 -15 26 -8 7 -15
16 -15 20 0 13 68 4 87 -11 9 -8 5 2 -10 23 -31 40 -20 56 21 30 15 -9 22 -11
22 -3 0 6 -7 14 -15 17 -9 4 -21 16 -27 27 -11 21 -11 21 15 4 30 -20 47 -23
29 -5 -17 17 -15 31 3 24 12 -4 12 -1 -2 21 -17 25 -17 25 5 19 22 -7 31 7 12
19 -16 10 -12 28 5 21 10 -3 15 1 15 12 0 12 11 5 36 -23 21 -22 34 -32 30
-22 -3 11 -9 31 -12 45 -4 15 -12 33 -18 41 -8 11 -8 13 2 7 7 -4 12 -1 12 8
0 20 19 21 26 1 9 -22 24 -18 24 5 0 11 -6 20 -14 20 -11 0 -12 5 -3 25 11 23
13 23 20 6 5 -11 19 -18 33 -18 20 0 22 2 13 14 -9 10 -14 11 -19 2 -5 -7 -10
-8 -14 -1 -3 6 -2 13 4 17 5 3 10 15 10 25 0 29 17 33 37 10 10 -12 27 -26 38
-32 12 -6 7 3 -12 22 -21 21 -32 40 -31 56 3 31 8 30 43 -6 30 -32 50 -33 21
-2 -9 11 -14 26 -10 36 6 16 8 16 32 0 23 -15 25 -15 19 0 -4 9 -2 16 3 16 6
0 10 7 10 16 0 21 18 8 41 -30z m3050 8 c6 -8 28 -14 49 -14 33 0 37 -3 33
-20 -4 -14 -1 -20 8 -18 9 2 13 -5 12 -19 -2 -13 2 -23 8 -23 5 0 7 -4 4 -10
-3 -5 -22 -10 -41 -10 -46 0 -43 -14 7 -29 54 -16 39 -33 -30 -33 -32 0 -52
-5 -55 -13 -5 -13 14 -23 94 -51 28 -10 30 -13 12 -13 -13 -1 -20 -5 -17 -11
9 -14 -1 -12 -43 9 -33 16 -53 23 -117 37 -11 3 -60 7 -110 9 -49 2 -91 9 -93
14 -2 5 6 7 18 4 12 -3 31 -1 43 5 24 12 115 33 160 37 15 2 40 6 55 10 l27 7
-24 9 c-14 6 -44 7 -67 3 -26 -4 -44 -2 -48 5 -4 6 -14 11 -22 11 -8 0 -12 -4
-9 -10 12 -20 -51 -10 -68 11 -13 15 -25 19 -46 14 -15 -3 -38 -1 -52 4 -21 9
-22 10 -4 10 11 1 31 8 44 17 15 11 34 14 57 11 35 -6 48 8 17 16 -14 4 -12 5
5 6 26 1 29 16 5 27 -12 6 7 10 57 14 88 6 115 3 131 -16z m-5166 -8 c29 -12
28 -13 -25 -10 -30 2 -61 3 -67 4 -7 0 -13 4 -13 8 0 14 72 12 105 -2z m2712
-53 c-3 -10 -5 -4 -5 12 0 17 2 24 5 18 2 -7 2 -21 0 -30z m1479 14 c-76 -57
-438 -296 -494 -325 -97 -52 -84 -32 16 23 48 27 123 74 167 104 127 88 330
221 335 221 3 -1 -8 -11 -24 -23z m-1689 -9 c-3 -8 -6 -5 -6 6 -1 11 2 17 5
13 3 -3 4 -12 1 -19z m-2408 3 c9 -6 -8 -11 -50 -16 -73 -8 -87 -14 -68 -27
10 -7 7 -8 -11 -4 -14 3 -41 6 -59 6 -54 0 -25 19 55 34 83 17 115 19 133 7z
m4331 4 c0 -2 -10 -9 -22 -15 -22 -11 -22 -10 -4 4 21 17 26 19 26 11z m-1900
-57 c0 -5 -4 -8 -10 -8 -5 0 -10 10 -10 23 0 18 2 19 10 7 5 -8 10 -18 10 -22z
m2277 16 c-3 -3 -12 -4 -19 -1 -8 3 -5 6 6 6 11 1 17 -2 13 -5z m-447 -8 c0
-9 -213 -129 -320 -180 -214 -102 -423 -196 -427 -192 -9 8 136 79 332 162 83
35 328 164 378 199 21 14 37 19 37 11z m-1807 -26 c3 -11 1 -18 -4 -14 -5 3
-9 12 -9 20 0 20 7 17 13 -6z m2397 0 c0 -5 -14 -10 -31 -10 -17 0 -28 4 -24
10 3 6 17 10 31 10 13 0 24 -4 24 -10z m-2259 -87 c-12 -20 -14 -14 -5 12 4 9
9 14 11 11 3 -2 0 -13 -6 -23z m2674 -53 c13 -5 14 -9 5 -9 -8 0 -24 4 -35 9
-13 5 -14 9 -5 9 8 0 24 -4 35 -9z m-2788 -22 c-3 -8 -6 -5 -6 6 -1 11 2 17 5
13 3 -3 4 -12 1 -19z m1322 -12 c-11 -10 -133 -67 -124 -58 12 13 106 61 119
62 5 0 7 -2 5 -4z m1437 -12 c18 -14 18 -14 -6 -3 -31 14 -36 19 -24 19 6 0
19 -7 30 -16z m-1716 -99 c0 -2 -13 -11 -30 -20 -38 -19 -40 -11 -2 9 31 17
32 18 32 11z m670 -25 c-22 -14 -189 -68 -230 -74 -19 -3 24 14 95 39 134 45
161 52 135 35z m-480 -50 c-8 -5 -19 -10 -25 -10 -5 0 -3 5 5 10 8 5 20 10 25
10 6 0 3 -5 -5 -10z m-100 -45 c-14 -8 -29 -14 -35 -14 -5 0 1 6 15 14 14 8
30 14 35 14 6 0 -1 -6 -15 -14z m-770 -10 c-7 -8 -18 -15 -24 -15 -6 0 -2 7 8
15 25 19 32 19 16 0z m-1873 -11 c-3 -3 -12 -4 -19 -1 -8 3 -5 6 6 6 11 1 17
-2 13 -5z m3898 -14 c28 -10 46 -19 42 -19 -13 -1 -117 30 -117 35 0 8 25 3
75 -16z m152 -16 c-3 -3 -12 -4 -19 -1 -8 3 -5 6 6 6 11 1 17 -2 13 -5z m80 0
c-3 -3 -12 -4 -19 -1 -8 3 -5 6 6 6 11 1 17 -2 13 -5z m-2438 -53 c8 -5 10
-14 6 -22 -5 -8 -5 -11 0 -7 4 4 14 0 22 -10 12 -15 13 -14 7 12 -6 26 -5 27
13 18 15 -8 25 -7 40 3 19 13 24 12 46 -5 47 -37 103 -153 90 -186 -4 -10 -10
-5 -22 18 -13 25 -23 32 -47 32 -21 1 -30 -3 -27 -11 3 -7 9 -13 14 -13 5 0 9
-8 9 -17 0 -15 -2 -15 -12 -2 -7 8 -20 20 -29 27 -14 11 -16 9 -11 -13 3 -19
0 -25 -13 -25 -9 0 -19 9 -22 20 -3 11 -9 17 -14 14 -5 -2 -11 6 -14 18 -4 14
-14 24 -25 24 -10 0 -16 -4 -13 -9 3 -5 -4 -6 -16 -2 -17 5 -20 3 -14 -11 5
-13 2 -15 -18 -9 -26 9 -48 32 -49 53 0 6 -6 12 -12 12 -7 0 -14 12 -14 26 -2
25 0 25 35 19 20 -4 41 -11 47 -16 14 -11 27 31 18 55 -7 18 4 20 25 7z m2171
-1 c0 -6 -31 -9 -77 -8 l-78 1 65 7 c36 4 71 7 78 8 6 1 12 -2 12 -8z m-227
-17 c-7 -2 -21 -2 -30 0 -10 3 -4 5 12 5 17 0 24 -2 18 -5z m-2163 -80 c12 3
9 -16 -6 -37 -15 -22 -29 -15 -30 17 -1 12 -4 40 -8 62 l-8 40 22 -42 c12 -23
25 -41 30 -40z m58 2 c-3 -3 -9 2 -12 12 -6 14 -5 15 5 6 7 -7 10 -15 7 -18z
m1269 -51 c-3 -3 -12 -4 -19 -1 -8 3 -5 6 6 6 11 1 17 -2 13 -5z m56 -11 c-7
-2 -21 -2 -30 0 -10 3 -4 5 12 5 17 0 24 -2 18 -5z m197 -3 c79 -13 272 -61
266 -67 -7 -8 -346 61 -346 69 0 10 2 10 80 -2z m-2415 -15 c77 -5 76 -6 -15
-25 -109 -24 -170 -25 -170 -5 0 8 -6 15 -12 16 -7 0 5 7 27 14 22 8 58 11 80
9 22 -3 63 -7 90 -9z m2260 -64 c5 -5 25 -12 43 -16 17 -3 32 -11 32 -16 0 -4
15 -13 33 -19 31 -10 31 -10 -8 -4 -22 3 -56 5 -75 5 -24 -1 -31 2 -21 8 21
14 -24 34 -59 26 -16 -3 -31 -2 -35 4 -3 6 1 11 10 11 9 0 13 5 10 10 -8 12
53 4 70 -9z m174 -7 c83 -17 94 -21 85 -35 -7 -12 -72 -1 -99 17 -11 8 -31 14
-45 14 -14 0 -32 5 -40 10 -23 15 11 13 99 -6z m-414 -14 c13 -5 14 -9 5 -9
-8 0 -24 4 -35 9 -13 5 -14 9 -5 9 8 0 24 -4 35 -9z m-2032 -7 c4 -3 -7 -15
-23 -25 -49 -29 -94 -20 -55 12 8 6 19 9 25 5 5 -3 10 -1 10 4 0 12 33 15 43
4z m57 3 c0 -3 -4 -8 -10 -11 -5 -3 -10 -1 -10 4 0 6 5 11 10 11 6 0 10 -2 10
-4z m2337 -2 c-3 -3 -12 -4 -19 -1 -8 3 -5 6 6 6 11 1 17 -2 13 -5z m-150 -10
c-3 -3 -12 -4 -19 -1 -8 3 -5 6 6 6 11 1 17 -2 13 -5z m350 0 c-3 -3 -12 -4
-19 -1 -8 3 -5 6 6 6 11 1 17 -2 13 -5z m281 -26 c29 -11 52 -22 50 -24 -4 -4
-140 45 -148 53 -6 7 29 -4 98 -29z m-205 15 c-7 -2 -21 -2 -30 0 -10 3 -4 5
12 5 17 0 24 -2 18 -5z m-18 -39 c24 -11 25 -13 5 -8 -14 4 -38 13 -55 20 -24
11 -25 13 -5 8 14 -4 39 -13 55 -20z m-471 -13 c16 -6 27 -14 24 -16 -5 -5
-93 27 -104 38 -7 7 35 -4 80 -22z m-894 0 c-14 -27 -50 -51 -77 -51 -12 0
-24 -4 -27 -8 -9 -14 -73 -12 -108 3 -32 14 -31 14 47 15 72 0 86 3 125 29 55
36 53 35 40 12z m1710 -27 c0 -2 -9 0 -20 6 -11 6 -20 13 -20 16 0 2 9 0 20
-6 11 -6 20 -13 20 -16z m-705 -4 c3 -6 -1 -7 -9 -4 -18 7 -21 14 -7 14 6 0
13 -4 16 -10z m941 -152 c5 -7 -16 5 -46 26 -80 57 -95 76 -23 27 34 -22 65
-46 69 -53z m-1874 -60 c12 -17 17 -28 10 -25 -6 4 -21 22 -34 39 -12 17 -17
28 -10 25 6 -4 21 -22 34 -39z m-187 -198 c3 -5 -1 -10 -10 -10 -9 0 -13 5
-10 10 3 6 8 10 10 10 2 0 7 -4 10 -10z m-85 -41 c0 -6 -4 -7 -10 -4 -5 3 -10
11 -10 16 0 6 5 7 10 4 6 -3 10 -11 10 -16z m2394 -495 c6 -14 18 -16 84 -11
80 7 137 -7 71 -17 -19 -3 -50 -8 -69 -11 -111 -17 -123 -18 -116 -6 11 16 -9
13 -24 -4 -7 -8 -23 -15 -36 -15 -12 0 -26 -4 -29 -10 -3 -5 -19 -10 -35 -10
-23 0 -31 5 -36 25 -3 14 -4 32 0 40 6 17 27 21 24 4 -2 -6 8 -13 21 -15 19
-3 22 -1 17 13 -4 10 -4 15 -1 11 4 -3 21 0 38 7 44 19 83 19 91 -1z m244 -84
c12 0 22 -4 22 -10 0 -13 -147 -13 -155 -1 -7 13 31 20 75 15 19 -2 45 -4 58
-4z m-325 -31 c37 -11 65 -25 62 -29 -3 -5 13 -7 35 -5 22 2 40 0 40 -5 0 -7
-40 -18 -128 -35 -18 -4 -29 -11 -26 -16 3 -6 19 -7 35 -4 18 4 36 2 44 -5 8
-6 23 -9 34 -5 10 3 22 2 25 -4 3 -5 -6 -12 -22 -16 l-27 -7 34 -12 33 -12
-25 -11 c-14 -7 -46 -10 -74 -7 -26 3 -75 9 -108 12 l-60 7 3 40 c1 22 5 61 8
88 7 56 15 58 117 26z m-85 -215 c21 -4 32 -14 36 -30 4 -13 14 -24 24 -24 9
-1 37 -12 62 -25 l45 -24 -35 0 c-47 0 -100 -11 -100 -22 0 -11 65 -39 94 -40
17 -1 17 -2 4 -6 -10 -2 -18 -9 -18 -15 0 -10 -36 -7 -72 7 -12 5 -18 2 -18
-8 0 -8 15 -20 33 -27 l32 -12 -24 -11 c-19 -9 -36 -7 -87 11 -34 12 -70 22
-78 22 -9 0 -16 3 -16 7 0 17 25 73 33 73 4 0 5 5 2 10 -10 16 24 120 39 120
7 0 27 -3 44 -6z m95 -1 c-7 -2 -19 -2 -25 0 -7 3 -2 5 12 5 14 0 19 -2 13 -5z
m-194 -341 c-12 -5 -39 17 -39 30 0 5 11 1 24 -9 13 -10 20 -20 15 -21z m-672
6 c-3 -8 -6 -5 -6 6 -1 11 2 17 5 13 3 -3 4 -12 1 -19z m38 -88 c0 -8 9 -23
20 -32 12 -10 15 -17 8 -18 -7 0 -13 4 -13 9 0 5 -9 13 -21 16 -15 5 -17 10
-9 20 8 10 7 15 -7 19 -15 4 -15 4 2 3 11 -1 20 -9 20 -17z m355 -112 c0 -16
-18 -7 -34 17 -25 38 -18 53 9 20 14 -16 25 -33 25 -37z m90 41 c0 -6 -4 -7
-10 -4 -5 3 -10 11 -10 16 0 6 5 7 10 4 6 -3 10 -11 10 -16z m-409 -29 c5 0 9
6 9 13 0 8 4 7 10 -3 16 -25 11 -31 -17 -24 -36 9 -35 8 -26 30 7 17 8 17 11
2 2 -10 8 -18 13 -18z m110 -20 c19 -16 20 -19 5 -13 -15 5 -17 3 -11 -8 8
-12 6 -12 -8 0 -9 7 -15 17 -12 21 3 5 -1 11 -7 13 -8 4 -9 6 -2 6 7 1 22 -8
35 -19z m173 1 c16 -11 36 -17 45 -14 9 2 7 -1 -4 -9 -13 -8 -19 -21 -17 -32
4 -17 -1 -16 -29 9 -62 51 -57 87 5 46z m-1401 -18 c-4 -10 -9 -11 -19 -2 -19
15 -18 18 5 16 11 -1 17 -6 14 -14z m165 -33 c-11 -17 -58 -29 -58 -15 0 4 48
28 68 34 1 1 -3 -8 -10 -19z m1017 -16 l17 -26 -31 23 c-35 26 -37 29 -17 29
7 0 21 -12 31 -26z m65 11 c7 -8 8 -15 2 -15 -5 0 -15 7 -22 15 -7 8 -8 15 -2
15 5 0 15 -7 22 -15z m-825 -95 c-4 -6 -11 -8 -16 -5 -5 4 -9 1 -9 -4 0 -6 -7
-11 -15 -11 -21 0 -19 18 3 23 31 8 43 7 37 -3z m115 -4 c0 -2 -7 -6 -15 -10
-8 -3 -15 -1 -15 4 0 6 7 10 15 10 8 0 15 -2 15 -4z m80 -10 c0 -2 -7 -7 -16
-10 -8 -3 -12 -2 -9 4 6 10 25 14 25 6z m30 -32 c0 -8 -5 -12 -10 -9 -6 4 -8
11 -5 16 9 14 15 11 15 -7z m636 -31 c-3 -7 1 -13 9 -13 8 0 15 -7 15 -16 0
-8 -4 -12 -10 -9 -5 3 -10 0 -10 -7 -1 -7 -7 2 -15 21 -18 41 -18 38 0 38 9 0
14 -6 11 -14z m-636 -3 c0 -5 -2 -10 -4 -10 -3 0 -8 5 -11 10 -3 6 -1 10 4 10
6 0 11 -4 11 -10z m40 -15 c0 -8 -2 -15 -4 -15 -2 0 -6 7 -10 15 -3 8 -1 15 4
15 6 0 10 -7 10 -15z m690 -56 c0 -23 -16 -33 -24 -14 -3 8 -1 17 5 21 6 4 5
12 -3 22 -12 15 -11 16 5 3 9 -7 17 -22 17 -32z m-600 -11 c0 -4 -11 -8 -25
-8 -14 0 -25 5 -25 10 0 6 4 10 10 10 5 0 7 8 3 18 -6 15 -4 15 15 -2 12 -11
22 -23 22 -28z m60 32 c0 -5 -2 -10 -4 -10 -3 0 -8 5 -11 10 -3 6 -1 10 4 10
6 0 11 -4 11 -10z m-315 -28 c-3 -3 -11 0 -18 7 -9 10 -8 11 6 5 10 -3 15 -9
12 -12z m385 -2 c0 -5 -7 -10 -16 -10 -8 0 -12 5 -9 10 3 6 10 10 16 10 5 0 9
-4 9 -10z m385 -30 c-5 -8 -11 -8 -17 -2 -6 6 -7 16 -3 22 5 8 11 8 17 2 6 -6
7 -16 3 -22z m-322 -32 c24 -41 21 -60 -3 -23 -11 17 -27 41 -37 54 -17 23
-17 24 3 11 11 -7 28 -26 37 -42z m753 28 c6 -6 26 -24 45 -40 18 -16 28 -31
22 -33 -15 -5 -73 24 -73 37 0 5 -8 11 -17 14 -10 4 -29 15 -43 26 l-25 21 40
-7 c22 -4 45 -12 51 -18z m-949 8 c-3 -3 -12 -4 -19 -1 -8 3 -5 6 6 6 11 1 17
-2 13 -5z m-3 -24 c38 14 46 13 46 -9 0 -23 -23 -32 -69 -26 -40 5 -45 9 -37
31 5 12 9 14 20 5 10 -8 21 -8 40 -1z m156 -40 c0 -5 -4 -10 -10 -10 -5 0 -10
5 -10 10 0 6 5 10 10 10 6 0 10 -4 10 -10z m377 -133 c19 7 25 -19 13 -48 -10
-22 -10 -22 -4 6 3 16 2 27 -2 22 -10 -10 -64 42 -64 62 0 9 9 2 23 -15 12
-17 28 -29 34 -27z m173 -27 c0 -5 -2 -10 -4 -10 -3 0 -8 5 -11 10 -3 6 -1 10
4 10 6 0 11 -4 11 -10z"/>
<path d="M2216 8962 c5 -5 25 -15 44 -22 19 -8 37 -17 40 -22 4 -4 22 -10 40
-14 33 -5 34 -4 16 10 -10 8 -22 13 -27 11 -4 -3 -29 6 -55 20 -46 25 -78 34
-58 17z"/>
<path d="M2010 8946 c0 -2 8 -10 18 -17 15 -13 16 -12 3 4 -13 16 -21 21 -21
13z"/>
<path d="M2719 8826 c25 -27 181 -110 189 -101 3 3 0 5 -7 5 -7 0 -10 4 -7 9
4 5 -7 12 -24 16 -16 4 -30 10 -30 13 0 11 -60 49 -105 68 l-40 16 24 -26z"/>
<path d="M3316 8432 c-3 -6 -1 -14 5 -17 14 -9 20 -2 10 14 -6 8 -11 9 -15 3z"/>
<path d="M3555 8231 c-3 -5 -1 -12 5 -16 5 -3 10 1 10 9 0 18 -6 21 -15 7z"/>
<path d="M7755 8940 c3 -5 0 -7 -8 -4 -8 3 -27 -7 -43 -21 -28 -26 -28 -26 -2
-10 15 9 27 12 30 6 2 -6 17 -4 37 6 29 15 31 18 15 24 -27 11 -36 10 -29 -1z"/>
<path d="M7645 8910 c-3 -5 -1 -10 4 -10 6 0 11 5 11 10 0 6 -2 10 -4 10 -3 0
-8 -4 -11 -10z"/>
<path d="M7525 8814 c-45 -31 -67 -54 -51 -54 11 0 106 74 106 82 0 11 2 12
-55 -28z"/>
<path d="M7129 8656 c-39 -30 -133 -130 -153 -163 -15 -26 14 -12 46 21 18 18
62 63 98 99 35 37 62 69 59 72 -3 3 -26 -10 -50 -29z"/>
<path d="M6956 8454 c-9 -24 -2 -26 12 -4 7 11 8 20 3 20 -5 0 -12 -7 -15 -16z"/>
<path d="M6721 8350 c-1 -8 -4 -26 -7 -40 -5 -22 -4 -23 6 -7 6 10 9 28 7 40
-2 12 -5 15 -6 7z"/>
<path d="M6940 8346 c-6 -8 -17 -13 -24 -10 -8 3 -16 -2 -19 -10 -4 -9 -2 -16
3 -16 6 0 10 5 10 11 0 5 4 8 9 5 4 -3 16 3 26 14 10 11 16 20 13 20 -3 0 -11
-6 -18 -14z"/>
<path d="M6650 8296 c0 -8 3 -22 7 -32 6 -16 7 -16 14 2 6 16 8 15 8 -8 1 -15
-3 -30 -9 -33 -12 -7 -13 -65 -2 -65 11 0 32 46 32 70 0 10 6 21 13 23 8 4 6
6 -4 6 -9 1 -21 12 -27 26 -13 27 -32 34 -32 11z"/>
<path d="M7905 7440 c-3 -6 1 -7 9 -4 18 7 21 14 7 14 -6 0 -13 -4 -16 -10z"/>
<path d="M7905 7260 c-3 -5 3 -10 14 -10 11 0 23 5 26 10 3 6 -3 10 -14 10
-11 0 -23 -4 -26 -10z"/>
<path d="M7805 7210 c-18 -8 -18 -9 5 -9 14 0 32 4 40 9 12 8 12 10 -5 9 -11
0 -29 -4 -40 -9z"/>
<path d="M2020 8320 c0 -5 5 -10 11 -10 5 0 7 5 4 10 -3 6 -8 10 -11 10 -2 0
-4 -4 -4 -10z"/>
<path d="M2330 7310 c0 -12 45 -24 60 -15 5 3 8 11 5 16 -8 12 -65 12 -65 -1z"/>
<path d="M7078 7073 c7 -3 16 -2 19 1 4 3 -2 6 -13 5 -11 0 -14 -3 -6 -6z"/>
<path d="M5854 6588 c-34 -24 -80 -88 -64 -88 5 0 10 5 10 10 0 6 4 9 9 8 9
-3 91 78 91 88 0 9 -17 3 -46 -18z"/>
<path d="M5493 6502 c-12 -26 -24 -56 -27 -67 -6 -19 -5 -19 7 -3 8 10 17 15
20 11 4 -3 7 1 7 10 0 8 5 17 12 19 12 4 21 65 9 72 -3 2 -16 -17 -28 -42z
m18 -5 c-10 -9 -11 -8 -5 6 3 10 9 15 12 12 3 -3 0 -11 -7 -18z"/>
<path d="M6606 6529 c-32 -25 -29 -33 6 -20 14 5 25 16 25 25 0 20 1 20 -31
-5z"/>
<path d="M6710 6510 c-9 -6 -10 -10 -3 -10 6 0 15 5 18 10 8 12 4 12 -15 0z"/>
<path d="M6054 6468 l-29 -33 33 29 c30 28 37 36 29 36 -2 0 -16 -15 -33 -32z"/>
<path d="M6392 6484 c4 -3 -3 -15 -15 -25 -29 -24 -12 -24 19 0 21 17 22 20 7
25 -10 4 -14 4 -11 0z"/>
<path d="M5774 6448 l-19 -23 23 19 c21 18 27 26 19 26 -2 0 -12 -10 -23 -22z"/>
<path d="M5687 6427 c-16 -22 -21 -34 -12 -34 7 0 20 15 29 34 9 18 14 33 12
33 -2 0 -15 -15 -29 -33z"/>
<path d="M6648 6453 c7 -3 16 -2 19 1 4 3 -2 6 -13 5 -11 0 -14 -3 -6 -6z"/>
<path d="M6481 6425 c-74 -28 -91 -40 -41 -30 67 13 139 35 145 45 10 17 -37
10 -104 -15z"/>
<path d="M6797 6442 c7 -5 -27 -9 -75 -9 -88 -1 -204 -28 -202 -48 1 -20 75
-3 151 36 8 4 22 3 30 -3 11 -8 11 -9 -3 -5 -9 3 -22 -1 -28 -9 -11 -12 -5
-14 40 -14 28 0 64 6 78 14 15 8 40 17 56 21 35 7 32 10 -19 18 -22 4 -34 3
-28 -1z"/>
<path d="M5576 6388 c-16 -23 -23 -60 -8 -42 11 12 33 64 27 64 -2 0 -11 -10
-19 -22z"/>
<path d="M6084 6388 l-19 -23 23 19 c21 18 27 26 19 26 -2 0 -12 -10 -23 -22z"/>
<path d="M5764 6382 c3 -5 0 -12 -6 -15 -7 -2 -10 -7 -7 -11 3 -4 12 0 18 8 9
11 9 16 0 22 -7 4 -9 3 -5 -4z"/>
<path d="M6440 6370 c-9 -6 -10 -10 -3 -10 6 0 15 5 18 10 8 12 4 12 -15 0z"/>
<path d="M6646 6372 c-3 -5 8 -6 25 -4 16 2 29 6 29 8 0 8 -49 4 -54 -4z"/>
<path d="M6761 6356 c-9 -10 -6 -12 14 -8 29 5 31 8 11 15 -8 3 -19 0 -25 -7z"/>
<path d="M7063 6353 c0 -8 12 -13 29 -13 34 0 30 15 -5 22 -15 3 -24 0 -24 -9z"/>
<path d="M5496 6326 c-9 -19 -16 -45 -15 -58 1 -19 2 -18 8 7 4 17 13 41 20
53 7 13 11 26 8 28 -2 3 -12 -11 -21 -30z"/>
<path d="M5727 6331 c-4 -17 -3 -21 5 -13 5 5 8 16 6 23 -3 8 -7 3 -11 -10z"/>
<path d="M6835 6340 c70 -25 87 -28 115 -18 49 17 34 24 -52 25 -46 0 -74 -3
-63 -7z"/>
<path d="M7001 6320 l-23 -20 38 0 c22 0 46 5 54 10 12 8 9 10 -13 10 -16 0
-26 4 -22 10 10 16 -8 11 -34 -10z"/>
<path d="M6020 6275 c-24 -25 -40 -45 -35 -44 10 1 92 89 83 89 -2 0 -24 -20
-48 -45z"/>
<path d="M6503 6299 c-18 -5 -33 -11 -33 -14 0 -8 83 4 93 14 14 14 -14 13
-60 0z"/>
<path d="M6956 6281 c-17 -6 -17 -8 -4 -14 9 -3 24 1 35 8 14 11 15 14 3 14
-8 0 -24 -4 -34 -8z"/>
<path d="M6485 6257 c-19 -15 -21 -14 38 -8 4 1 7 6 7 11 0 14 -23 12 -45 -3z"/>
<path d="M6614 6255 c-10 -8 -14 -15 -8 -15 6 0 17 7 24 15 16 19 9 19 -16 0z"/>
<path d="M6658 6263 c6 -2 18 -2 25 0 6 3 1 5 -13 5 -14 0 -19 -2 -12 -5z"/>
<path d="M7075 6253 c-11 -3 -24 -10 -30 -15 -7 -7 -3 -8 13 -3 13 4 48 7 78
7 35 0 51 4 42 9 -14 9 -69 10 -103 2z"/>
<path d="M5475 6229 c-4 -6 -5 -12 -2 -15 2 -3 7 2 10 11 7 17 1 20 -8 4z"/>
<path d="M7085 6224 c-46 -10 -95 -28 -95 -35 0 -5 10 -5 23 0 12 4 27 6 34 4
6 -2 14 1 18 6 3 6 19 11 36 11 16 0 29 5 29 10 0 10 -9 11 -45 4z"/>
<path d="M8070 6200 c20 -13 40 -13 40 0 0 6 -12 10 -27 10 -22 0 -25 -2 -13
-10z"/>
<path d="M6658 6173 c7 -3 16 -2 19 1 4 3 -2 6 -13 5 -11 0 -14 -3 -6 -6z"/>
<path d="M6950 6153 l-25 -15 28 7 c18 3 33 0 42 -8 8 -9 25 -12 40 -9 18 3
23 7 14 12 -7 5 -18 6 -24 4 -7 -3 -15 2 -18 10 -8 19 -24 19 -57 -1z"/>
<path d="M5545 6143 c-5 -10 -7 -22 -6 -26 1 -4 -5 -18 -14 -30 -8 -12 -15
-33 -14 -47 l1 -25 8 25 8 25 1 -24 c2 -42 13 -15 21 51 8 68 7 79 -5 51z"/>
<path d="M8215 6040 c-3 -5 3 -10 15 -10 12 0 18 5 15 10 -3 6 -10 10 -15 10
-5 0 -12 -4 -15 -10z"/>
<path d="M7915 5999 c-5 -7 8 -8 41 -3 64 9 68 14 11 14 -25 0 -49 -5 -52 -11z"/>
<path d="M8065 5990 c-7 -11 -1 -13 35 -10 42 3 48 20 8 20 -20 0 -40 -4 -43
-10z"/>
<path d="M8162 5993 c-25 -10 0 -23 46 -23 42 0 44 1 26 15 -19 14 -48 18 -72
8z"/>
<path d="M7935 5970 c-3 -5 -18 -10 -33 -10 -15 -1 -38 -7 -52 -16 -24 -14
-23 -14 29 -11 45 3 56 7 62 25 9 23 5 30 -6 12z"/>
<path d="M7960 5940 c-23 -14 -22 -47 3 -54 17 -5 19 -8 8 -15 -25 -16 10 -25
119 -28 115 -3 172 -8 210 -18 l25 -6 -23 13 c-12 8 -19 17 -16 21 7 7 -22 10
-106 12 -19 0 -55 10 -80 20 l-45 20 55 5 c53 6 54 6 27 18 -35 15 -158 24
-177 12z"/>
<path d="M8258 5933 c7 -3 16 -2 19 1 4 3 -2 6 -13 5 -11 0 -14 -3 -6 -6z"/>
<path d="M8180 5926 c0 -2 9 -6 20 -9 11 -3 20 -1 20 4 0 5 -9 9 -20 9 -11 0
-20 -2 -20 -4z"/>
<path d="M7890 5901 c0 -11 26 -22 34 -14 3 3 3 10 0 14 -7 12 -34 11 -34 0z"/>
<path d="M7870 5862 c8 -6 31 -13 50 -16 23 -5 30 -4 20 2 -8 6 -31 13 -50 16
-23 5 -30 4 -20 -2z"/>
<path d="M6970 5856 c0 -2 7 -6 15 -10 8 -3 15 -1 15 4 0 6 -7 10 -15 10 -8 0
-15 -2 -15 -4z"/>
<path d="M7187 5748 c6 -11 93 -9 118 2 14 6 -3 8 -52 7 -39 -1 -69 -5 -66 -9z"/>
<path d="M7368 5753 c6 -2 18 -2 25 0 6 3 1 5 -13 5 -14 0 -19 -2 -12 -5z"/>
<path d="M7920 5750 c-9 -6 -10 -10 -3 -10 6 0 15 5 18 10 8 12 4 12 -15 0z"/>
<path d="M7340 5696 c0 -2 9 -6 20 -9 11 -3 20 -1 20 4 0 5 -9 9 -20 9 -11 0
-20 -2 -20 -4z"/>
<path d="M7488 5683 c7 -3 16 -2 19 1 4 3 -2 6 -13 5 -11 0 -14 -3 -6 -6z"/>
<path d="M7548 5683 c7 -3 16 -2 19 1 4 3 -2 6 -13 5 -11 0 -14 -3 -6 -6z"/>
<path d="M7365 5640 c-3 -5 3 -10 13 -10 11 0 33 -7 48 -15 33 -17 104 -20
104 -5 0 28 -150 55 -165 30z"/>
<path d="M7310 5618 c0 -4 14 -8 30 -8 17 0 30 2 30 4 0 2 -13 6 -30 8 -16 3
-30 1 -30 -4z"/>
<path d="M7550 5611 c0 -5 9 -7 20 -4 11 3 20 7 20 9 0 2 -9 4 -20 4 -11 0
-20 -4 -20 -9z"/>
<path d="M7764 5532 c4 -4 20 -7 34 -7 15 0 26 -5 25 -10 -1 -6 18 -8 44 -6
63 5 41 19 -41 25 -38 3 -66 2 -62 -2z"/>
<path d="M7566 5386 c4 -10 18 -16 38 -15 l31 1 -27 8 c-14 4 -31 11 -37 14
-7 4 -8 1 -5 -8z"/>
<path d="M7690 5379 c-22 -6 -20 -7 13 -8 38 -1 47 3 25 11 -7 3 -24 1 -38 -3z"/>
<path d="M7818 5363 c7 -3 16 -2 19 1 4 3 -2 6 -13 5 -11 0 -14 -3 -6 -6z"/>
<path d="M4551 6513 c-1 -12 18 -42 44 -70 l45 -48 -32 52 c-61 96 -57 91 -57
66z"/>
<path d="M4682 6455 c6 -26 92 -158 96 -147 1 4 -6 32 -15 61 -13 38 -28 62
-52 80 -32 24 -34 24 -29 6z"/>
<path d="M4840 6423 c0 -10 5 -25 10 -33 8 -12 10 -9 10 12 0 15 -4 30 -10 33
-5 3 -10 -2 -10 -12z"/>
<path d="M4872 6400 c0 -14 2 -19 5 -12 2 6 2 18 0 25 -3 6 -5 1 -5 -13z"/>
<path d="M4780 6397 c0 -4 4 -15 9 -25 5 -9 16 -39 25 -67 11 -37 14 -41 10
-15 -3 19 -6 44 -7 56 -2 19 -37 67 -37 51z"/>
<path d="M4614 6348 c2 -13 13 -39 24 -58 12 -19 26 -45 31 -57 11 -23 31 -40
31 -25 0 5 -8 20 -19 33 -15 20 -34 65 -47 117 -6 21 -22 13 -20 -10z"/>
<path d="M4870 6361 c0 -6 4 -13 10 -16 6 -3 7 1 4 9 -7 18 -14 21 -14 7z"/>
<path d="M4881 6290 c1 -8 -1 -23 -6 -33 -4 -10 -5 -21 -1 -24 3 -3 10 5 15
18 11 28 14 20 11 -35 -1 -25 2 -36 9 -32 18 11 12 69 -10 96 -12 15 -19 19
-18 10z"/>
<path d="M4696 6095 c4 -45 30 -122 38 -114 3 2 -1 35 -8 72 -16 82 -35 110
-30 42z"/>
<path d="M4320 6466 c0 -2 8 -10 18 -17 15 -13 16 -12 3 4 -13 16 -21 21 -21
13z"/>
<path d="M4360 6421 c0 -10 30 -24 37 -17 3 2 -5 9 -16 16 -12 6 -21 7 -21 1z"/>
<path d="M4950 6452 c0 -10 7 -27 15 -38 16 -21 20 -8 9 34 -8 26 -24 29 -24
4z"/>
<path d="M3955 6480 c10 -11 20 -20 23 -20 3 0 -3 9 -13 20 -10 11 -20 20 -23
20 -3 0 3 -9 13 -20z"/>
<path d="M4104 6431 c3 -5 16 -11 28 -14 22 -6 22 -5 4 8 -22 17 -40 20 -32 6z"/>
<path d="M2928 6403 c7 -3 16 -2 19 1 4 3 -2 6 -13 5 -11 0 -14 -3 -6 -6z"/>
<path d="M3630 6331 c14 -11 39 -20 55 -20 l30 1 -30 13 c-16 7 -41 16 -55 19
l-25 7 25 -20z"/>
<path d="M3475 6300 c3 -5 13 -10 21 -10 8 0 12 5 9 10 -3 6 -13 10 -21 10 -8
0 -12 -4 -9 -10z"/>
<path d="M3701 6300 c-20 -5 -16 -8 30 -28 60 -25 100 -29 97 -9 -4 16 -38 36
-63 36 -18 0 -17 -1 5 -15 l25 -15 -25 7 c-14 3 -29 11 -35 18 -6 7 -21 10
-34 6z"/>
<path d="M4160 6295 c0 -6 78 -77 97 -88 8 -5 21 -6 30 -3 14 6 13 10 -7 31
-28 30 -120 76 -120 60z"/>
<path d="M3581 6276 c13 -14 109 -44 102 -33 -4 7 1 6 10 -2 9 -7 24 -10 34
-6 16 6 15 8 -8 20 -26 14 -149 32 -138 21z"/>
<path d="M2798 6253 c7 -3 16 -2 19 1 4 3 -2 6 -13 5 -11 0 -14 -3 -6 -6z"/>
<path d="M3386 6198 c3 -4 11 -5 19 -1 21 7 19 12 -4 10 -11 0 -18 -5 -15 -9z"/>
<path d="M3085 6192 c-29 -6 -43 -22 -19 -21 27 1 60 15 48 21 -5 2 -18 3 -29
0z"/>
<path d="M3163 6173 c9 -2 23 -2 30 0 6 3 -1 5 -18 5 -16 0 -22 -2 -12 -5z"/>
<path d="M3001 6156 c-9 -11 -8 -15 5 -20 22 -8 26 -8 19 4 -3 6 -1 10 4 10 6
0 11 5 11 10 0 15 -26 12 -39 -4z"/>
<path d="M3438 6143 c6 -2 18 -2 25 0 6 3 1 5 -13 5 -14 0 -19 -2 -12 -5z"/>
<path d="M3162 6123 c-23 -9 44 -43 83 -41 51 2 52 14 1 27 -24 6 -50 13 -57
15 -8 2 -20 2 -27 -1z"/>
<path d="M3068 6112 c-10 -2 -18 -8 -18 -13 0 -12 47 -12 54 0 7 11 -13 19
-36 13z"/>
<path d="M3633 6085 c0 -8 4 -12 8 -9 4 2 10 -2 12 -8 3 -7 6 -3 6 10 1 12 -5
22 -12 22 -8 0 -14 -7 -14 -15z"/>
<path d="M2970 6070 c17 -10 92 -11 85 0 -2 4 -25 7 -51 8 -30 0 -42 -3 -34
-8z"/>
<path d="M3100 6070 c0 -5 5 -10 10 -10 6 0 10 5 10 10 0 6 -4 10 -10 10 -5 0
-10 -4 -10 -10z"/>
<path d="M3165 6070 c28 -12 47 -12 40 0 -3 6 -18 10 -33 9 -24 0 -25 -1 -7
-9z"/>
<path d="M3013 6023 c9 -2 25 -2 35 0 9 3 1 5 -18 5 -19 0 -27 -2 -17 -5z"/>
<path d="M2950 6010 c-13 -9 -13 -10 0 -10 8 0 22 5 30 10 13 9 13 10 0 10 -8
0 -22 -5 -30 -10z"/>
<path d="M3018 5873 c6 -2 18 -2 25 0 6 3 1 5 -13 5 -14 0 -19 -2 -12 -5z"/>
<path d="M2605 5860 c3 -5 11 -10 16 -10 6 0 7 5 4 10 -3 6 -11 10 -16 10 -6
0 -7 -4 -4 -10z"/>
<path d="M2828 5863 c6 -2 18 -2 25 0 6 3 1 5 -13 5 -14 0 -19 -2 -12 -5z"/>
<path d="M2958 5863 c7 -3 16 -2 19 1 4 3 -2 6 -13 5 -11 0 -14 -3 -6 -6z"/>
<path d="M3248 5809 c-10 -10 -14 -19 -9 -19 6 0 13 5 16 10 3 6 17 10 31 10
14 0 22 4 19 10 -10 16 -38 10 -57 -11z"/>
<path d="M2483 5753 c9 -2 23 -2 30 0 6 3 -1 5 -18 5 -16 0 -22 -2 -12 -5z"/>
<path d="M2878 5743 c7 -3 16 -2 19 1 4 3 -2 6 -13 5 -11 0 -14 -3 -6 -6z"/>
<path d="M2580 5720 c-11 -7 -7 -10 18 -10 17 0 32 5 32 10 0 13 -30 13 -50 0z"/>
<path d="M2515 5690 c3 -5 11 -10 16 -10 6 0 7 5 4 10 -3 6 -11 10 -16 10 -6
0 -7 -4 -4 -10z"/>
<path d="M2715 5691 c-3 -6 -5 -11 -3 -12 34 -8 154 -2 144 8 -11 11 -134 14
-141 4z"/>
<path d="M2528 5623 c6 -2 18 -2 25 0 6 3 1 5 -13 5 -14 0 -19 -2 -12 -5z"/>
<path d="M2600 5620 c0 -5 7 -10 15 -10 8 0 15 5 15 10 0 6 -7 10 -15 10 -8 0
-15 -4 -15 -10z"/>
<path d="M2413 5563 c9 -2 23 -2 30 0 6 3 -1 5 -18 5 -16 0 -22 -2 -12 -5z"/>
<path d="M2565 5464 c-13 -10 -15 -14 -4 -14 20 0 43 16 32 23 -4 3 -17 -1
-28 -9z"/>
<path d="M2650 5470 c0 -5 16 -10 36 -10 21 0 33 4 29 10 -3 6 -19 10 -36 10
-16 0 -29 -4 -29 -10z"/>
<path d="M2740 5440 c0 -5 7 -7 15 -4 8 4 15 8 15 10 0 2 -7 4 -15 4 -8 0 -15
-4 -15 -10z"/>
<path d="M7610 5200 c0 -5 23 -10 51 -10 31 0 48 4 44 10 -3 6 -26 10 -51 10
-24 0 -44 -4 -44 -10z"/>
<path d="M7760 5190 c0 -11 82 -19 100 -9 12 7 11 9 -5 10 -11 0 -37 3 -57 4
-21 2 -38 0 -38 -5z"/>
<path d="M5222 5115 c0 -16 2 -22 5 -12 2 9 2 23 0 30 -3 6 -5 -1 -5 -18z"/>
<path d="M5202 5105 c0 -16 2 -22 5 -12 2 9 2 23 0 30 -3 6 -5 -1 -5 -18z"/>
<path d="M5377 5116 c-3 -8 -2 -18 3 -21 13 -8 20 9 11 24 -6 10 -10 9 -14 -3z"/>
<path d="M5236 5050 c-4 -14 -1 -43 7 -65 l14 -40 7 31 c4 20 2 44 -7 65 -14
34 -15 34 -21 9z"/>
<path d="M5670 4470 c0 -5 5 -10 10 -10 6 0 10 5 10 10 0 6 -4 10 -10 10 -5 0
-10 -4 -10 -10z"/>
<path d="M5715 4380 c3 -5 8 -10 11 -10 2 0 4 5 4 10 0 6 -5 10 -11 10 -5 0
-7 -4 -4 -10z"/>
<path d="M5740 4271 c0 -5 7 -14 15 -21 16 -14 18 -10 9 14 -6 17 -24 22 -24
7z"/>
<path d="M5710 4240 c11 -7 11 -10 2 -10 -7 0 -10 -4 -7 -10 3 -5 11 -10 16
-10 6 0 7 5 4 10 -3 6 0 10 7 10 9 0 9 3 -2 10 -8 5 -19 10 -25 10 -5 0 -3 -5
5 -10z"/>
<path d="M5718 4138 c14 -14 45 -20 37 -8 -2 4 -14 10 -26 13 -16 4 -19 3 -11
-5z"/>
<path d="M5684 4103 c2 -10 7 -18 12 -19 5 0 22 -6 38 -13 48 -19 67 -8 27 16
-18 12 -41 19 -49 15 -10 -3 -13 -1 -8 6 4 7 1 12 -8 12 -8 0 -13 -8 -12 -17z"/>
<path d="M5865 4100 c3 -5 8 -10 11 -10 2 0 4 5 4 10 0 6 -5 10 -11 10 -5 0
-7 -4 -4 -10z"/>
<path d="M5696 4065 c-3 -10 -5 -18 -4 -19 46 -23 78 -33 83 -26 7 11 -24 42
-39 37 -6 -2 -16 3 -22 11 -9 13 -12 12 -18 -3z"/>
<path d="M5797 4009 c7 -7 15 -10 18 -7 3 3 -2 9 -12 12 -14 6 -15 5 -6 -5z"/>
<path d="M4689 5042 c6 -12 16 -24 22 -28 8 -4 8 -1 0 14 -6 12 -16 24 -22 28
-8 4 -8 1 0 -14z"/>
<path d="M4760 4998 c11 -24 15 -44 10 -46 -6 -2 -10 -9 -10 -15 0 -6 7 -5 16
5 14 14 14 19 -5 57 -28 54 -35 53 -11 -1z"/>
<path d="M4455 4730 c3 -5 8 -10 11 -10 2 0 4 5 4 10 0 6 -5 10 -11 10 -5 0
-7 -4 -4 -10z"/>
<path d="M4455 4607 c28 -25 52 -44 54 -42 6 7 -8 21 -56 54 l-48 33 50 -45z"/>
<path d="M4410 4530 c14 -11 31 -20 39 -20 8 0 3 9 -12 20 -14 11 -31 20 -39
20 -7 0 -2 -9 12 -20z"/>
<path d="M4425 4470 c28 -12 67 -12 60 0 -3 6 -23 10 -43 9 -30 0 -33 -2 -17
-9z"/>
<path d="M4293 4437 c0 -7 9 -13 19 -13 22 0 24 12 2 20 -21 8 -21 8 -21 -7z"/>
<path d="M4450 4370 c-8 -5 -12 -12 -9 -15 4 -3 12 1 19 10 14 17 11 19 -10 5z"/>
<path d="M7675 5070 c3 -5 23 -10 43 -10 28 0 33 3 22 10 -20 13 -73 13 -65 0z"/>
<path d="M5400 4382 c0 -5 7 -13 16 -16 10 -4 14 -1 12 6 -5 15 -28 23 -28 10z"/>
<path d="M5550 4361 c0 -5 5 -13 10 -16 6 -3 10 -2 10 4 0 5 -4 13 -10 16 -5
3 -10 2 -10 -4z"/>
</g>
</svg>
